<svg width="260" height="700" viewBox="0 0 260 700" fill="none" xmlns="http://www.w3.org/2000/svg">
<mask id="path-1-inside-1_80_1561" fill="white">
<path d="M0 0H260V700H0V0Z"/>
</mask>
<path d="M0 0H260V700H0V0Z" fill="white"/>
<path d="M89.2466 675.481C88.7176 675.481 88.3092 675.665 88.0215 676.033C87.738 676.401 87.5962 676.911 87.5962 677.563C87.5962 678.274 87.7295 678.801 87.9961 679.144C88.2669 679.486 88.6795 679.658 89.2339 679.658C89.5978 679.658 90.0443 679.562 90.5732 679.372V680.159C90.3701 680.244 90.1606 680.316 89.9448 680.375C89.7332 680.434 89.4793 680.464 89.1831 680.464C88.3621 680.464 87.7316 680.21 87.2915 679.702C86.8514 679.19 86.6313 678.477 86.6313 677.563C86.6313 676.679 86.8641 675.976 87.3296 675.456C87.7993 674.935 88.4383 674.675 89.2466 674.675C89.7882 674.675 90.3088 674.802 90.8081 675.056L90.4399 675.805C89.9829 675.589 89.5851 675.481 89.2466 675.481ZM84.2129 677.563C84.2129 676.717 84.4245 675.923 84.8477 675.183C85.2708 674.442 85.8527 673.858 86.5933 673.431C87.3338 673.003 88.1315 672.79 88.9863 672.79C89.8327 672.79 90.6261 673.001 91.3667 673.424C92.1073 673.847 92.6912 674.429 93.1187 675.17C93.5461 675.91 93.7598 676.708 93.7598 677.563C93.7598 678.397 93.5545 679.18 93.144 679.912C92.7336 680.644 92.158 681.23 91.4175 681.67C90.6769 682.11 89.8665 682.33 88.9863 682.33C88.1104 682.33 87.3021 682.112 86.5615 681.676C85.821 681.236 85.2433 680.65 84.8286 679.918C84.4181 679.186 84.2129 678.401 84.2129 677.563ZM84.8794 677.563C84.8794 678.295 85.0635 678.981 85.4316 679.62C85.7998 680.254 86.3013 680.756 86.936 681.124C87.575 681.488 88.2585 681.67 88.9863 681.67C89.7227 681.67 90.4061 681.486 91.0366 681.118C91.6672 680.75 92.1665 680.252 92.5347 679.626C92.9071 678.995 93.0933 678.308 93.0933 677.563C93.0933 676.827 92.9092 676.143 92.541 675.513C92.1729 674.882 91.6735 674.383 91.043 674.015C90.4167 673.642 89.7311 673.456 88.9863 673.456C88.25 673.456 87.5666 673.64 86.936 674.008C86.3055 674.376 85.804 674.876 85.4316 675.506C85.0635 676.133 84.8794 676.818 84.8794 677.563ZM104.506 682.203H98.4062V681.295L100.85 678.839C101.595 678.086 102.086 677.548 102.323 677.227C102.56 676.905 102.737 676.592 102.856 676.287C102.974 675.982 103.034 675.654 103.034 675.303C103.034 674.808 102.883 674.417 102.583 674.129C102.283 673.837 101.866 673.691 101.333 673.691C100.947 673.691 100.581 673.754 100.234 673.881C99.8916 674.008 99.5086 674.239 99.0854 674.573L98.5269 673.856C99.3817 673.145 100.313 672.79 101.32 672.79C102.192 672.79 102.875 673.014 103.37 673.462C103.865 673.907 104.113 674.506 104.113 675.259C104.113 675.847 103.948 676.429 103.618 677.004C103.288 677.58 102.67 678.308 101.764 679.188L99.7329 681.175V681.226H104.506V682.203ZM111.997 677.55C111.997 679.154 111.743 680.352 111.235 681.143C110.731 681.934 109.959 682.33 108.918 682.33C107.919 682.33 107.16 681.926 106.639 681.118C106.119 680.305 105.858 679.116 105.858 677.55C105.858 675.934 106.11 674.734 106.614 673.951C107.117 673.168 107.885 672.777 108.918 672.777C109.925 672.777 110.689 673.185 111.209 674.002C111.734 674.819 111.997 676.001 111.997 677.55ZM106.925 677.55C106.925 678.9 107.083 679.884 107.401 680.502C107.718 681.116 108.224 681.422 108.918 681.422C109.62 681.422 110.128 681.111 110.441 680.489C110.759 679.863 110.917 678.883 110.917 677.55C110.917 676.217 110.759 675.242 110.441 674.624C110.128 674.002 109.62 673.691 108.918 673.691C108.224 673.691 107.718 673.998 107.401 674.611C107.083 675.221 106.925 676.2 106.925 677.55ZM119.385 682.203H113.285V681.295L115.729 678.839C116.474 678.086 116.965 677.548 117.202 677.227C117.439 676.905 117.616 676.592 117.735 676.287C117.853 675.982 117.913 675.654 117.913 675.303C117.913 674.808 117.762 674.417 117.462 674.129C117.161 673.837 116.745 673.691 116.211 673.691C115.826 673.691 115.46 673.754 115.113 673.881C114.771 674.008 114.388 674.239 113.964 674.573L113.406 673.856C114.261 673.145 115.192 672.79 116.199 672.79C117.07 672.79 117.754 673.014 118.249 673.462C118.744 673.907 118.992 674.506 118.992 675.259C118.992 675.847 118.827 676.429 118.497 677.004C118.167 677.58 117.549 678.308 116.643 679.188L114.612 681.175V681.226H119.385V682.203ZM126.825 682.203H120.725V681.295L123.168 678.839C123.913 678.086 124.404 677.548 124.641 677.227C124.878 676.905 125.056 676.592 125.174 676.287C125.293 675.982 125.352 675.654 125.352 675.303C125.352 674.808 125.202 674.417 124.901 674.129C124.601 673.837 124.184 673.691 123.651 673.691C123.266 673.691 122.9 673.754 122.553 673.881C122.21 674.008 121.827 674.239 121.404 674.573L120.845 673.856C121.7 673.145 122.631 672.79 123.638 672.79C124.51 672.79 125.193 673.014 125.688 673.462C126.184 673.907 126.431 674.506 126.431 675.259C126.431 675.847 126.266 676.429 125.936 677.004C125.606 677.58 124.988 678.308 124.083 679.188L122.051 681.175V681.226H126.825V682.203ZM133.261 682.203H132.182V672.923H137.355V673.881H133.261V677.277H137.108V678.236H133.261V682.203ZM139.793 682.203H138.739V672.326H139.793V682.203ZM148.032 678.718C148.032 679.852 147.747 680.739 147.175 681.378C146.604 682.013 145.815 682.33 144.808 682.33C144.186 682.33 143.633 682.184 143.151 681.892C142.668 681.6 142.296 681.181 142.034 680.635C141.771 680.089 141.64 679.45 141.64 678.718C141.64 677.584 141.924 676.702 142.491 676.071C143.058 675.437 143.845 675.119 144.852 675.119C145.825 675.119 146.598 675.443 147.169 676.09C147.744 676.738 148.032 677.614 148.032 678.718ZM142.732 678.718C142.732 679.607 142.91 680.284 143.265 680.75C143.621 681.215 144.143 681.448 144.833 681.448C145.523 681.448 146.045 681.217 146.401 680.756C146.761 680.29 146.94 679.611 146.94 678.718C146.94 677.834 146.761 677.163 146.401 676.706C146.045 676.245 145.519 676.014 144.82 676.014C144.131 676.014 143.61 676.241 143.259 676.693C142.908 677.146 142.732 677.821 142.732 678.718ZM152.666 682.33C151.659 682.33 150.878 682.021 150.324 681.403C149.774 680.781 149.499 679.903 149.499 678.769C149.499 677.605 149.778 676.706 150.336 676.071C150.899 675.437 151.699 675.119 152.736 675.119C153.07 675.119 153.404 675.155 153.739 675.227C154.073 675.299 154.335 675.384 154.526 675.481L154.202 676.376C153.969 676.283 153.715 676.207 153.44 676.147C153.165 676.084 152.922 676.052 152.71 676.052C151.297 676.052 150.59 676.954 150.59 678.756C150.59 679.611 150.762 680.267 151.104 680.724C151.451 681.181 151.964 681.41 152.641 681.41C153.22 681.41 153.815 681.285 154.424 681.035V681.968C153.959 682.209 153.373 682.33 152.666 682.33ZM160.359 682.203L160.15 681.213H160.099C159.752 681.649 159.405 681.945 159.058 682.102C158.715 682.254 158.286 682.33 157.77 682.33C157.08 682.33 156.538 682.152 156.145 681.797C155.755 681.441 155.561 680.936 155.561 680.28C155.561 678.875 156.684 678.139 158.931 678.071L160.112 678.033V677.601C160.112 677.055 159.993 676.653 159.756 676.395C159.524 676.133 159.149 676.001 158.633 676.001C158.053 676.001 157.397 676.179 156.665 676.535L156.341 675.729C156.684 675.542 157.059 675.396 157.465 675.291C157.875 675.185 158.286 675.132 158.696 675.132C159.526 675.132 160.139 675.316 160.537 675.684C160.939 676.052 161.14 676.643 161.14 677.455V682.203H160.359ZM157.979 681.46C158.635 681.46 159.149 681.281 159.521 680.921C159.898 680.561 160.086 680.058 160.086 679.41V678.782L159.033 678.826C158.195 678.856 157.59 678.987 157.217 679.22C156.849 679.448 156.665 679.806 156.665 680.292C156.665 680.673 156.779 680.963 157.008 681.162C157.241 681.361 157.564 681.46 157.979 681.46ZM166.491 675.119C166.8 675.119 167.077 675.145 167.323 675.195L167.177 676.173C166.889 676.109 166.635 676.078 166.415 676.078C165.852 676.078 165.37 676.306 164.968 676.763C164.57 677.22 164.371 677.789 164.371 678.471V682.203H163.317V675.246H164.187L164.308 676.535H164.358C164.617 676.082 164.928 675.733 165.292 675.487C165.655 675.242 166.055 675.119 166.491 675.119ZM173.359 681.27H173.302C172.816 681.977 172.088 682.33 171.119 682.33C170.209 682.33 169.5 682.019 168.992 681.397C168.489 680.775 168.237 679.89 168.237 678.744C168.237 677.597 168.491 676.706 168.999 676.071C169.506 675.437 170.213 675.119 171.119 675.119C172.062 675.119 172.786 675.462 173.29 676.147H173.372L173.328 675.646L173.302 675.157V672.326H174.356V682.203H173.499L173.359 681.27ZM171.252 681.448C171.971 681.448 172.492 681.253 172.813 680.864C173.139 680.47 173.302 679.838 173.302 678.966V678.744C173.302 677.758 173.137 677.055 172.807 676.636C172.481 676.213 171.959 676.001 171.239 676.001C170.621 676.001 170.147 676.243 169.817 676.725C169.492 677.203 169.329 677.88 169.329 678.756C169.329 679.645 169.492 680.316 169.817 680.769C170.143 681.221 170.621 681.448 171.252 681.448Z" fill="#677788"/>
<path d="M0 655.203H259V653.203H0V655.203Z" fill="#E7EAF3" mask="url(#path-3-inside-2_80_1561)"/>
<g clip-path="url(#clip0_80_1561)">
<path d="M42.4284 22.9168C42.4682 22.908 44.3336 22.8984 46.0294 22.8954L48.0076 18.0513H40.1185C39.8741 18.0377 39.6294 18.0728 39.3988 18.1547C39.1681 18.2366 38.9561 18.3636 38.7751 18.5284C38.4715 18.8125 38.2314 19.1574 38.0702 19.5407C38.0702 19.5407 33.4812 31.69 31.5303 35.5476C30.7709 37.0495 28.02 41.2912 28.02 41.2912C29.1661 41.5226 30.3509 41.4769 31.4758 41.1577C31.9991 41.0185 32.504 40.8176 32.9799 40.5591C33.5398 40.2596 34.0621 39.8945 34.5356 39.4715C35.095 38.967 35.5947 38.4 36.0249 37.7816C36.549 37.0228 36.9937 36.2122 37.3521 35.3625L38.3637 32.8609H41.9647L43.8735 28.1841H40.2232L40.6213 27.2256L42.4284 22.9168Z" fill="#00D179"/>
<path d="M55.9873 14.5145L47.478 35.3619H41.761L49.7386 15.8174C49.9024 15.4251 50.1803 15.0911 50.5364 14.8589C50.875 14.6331 51.273 14.5128 51.6799 14.5131L55.9873 14.5145Z" fill="#00D179"/>
<path d="M62.0726 18.0616C63.1071 18.035 64.1369 18.2103 65.1044 18.5777C65.878 18.8723 66.5388 19.4036 66.9927 20.0958C67.4368 20.8362 67.6539 21.6906 67.6172 22.5532C67.5703 23.6928 67.3134 24.8139 66.8592 25.8601C66.6105 26.4607 66.42 26.9277 66.2878 27.261C66.1555 27.5942 66.0359 27.8892 65.9287 28.1457C65.8226 28.4028 65.7117 28.6687 65.5962 28.9435C65.4807 29.2182 65.3168 29.6041 65.1044 30.101C64.6912 31.0794 64.1882 32.0173 63.6018 32.9028C63.1815 33.539 62.6392 34.0857 62.0063 34.5109C61.417 34.8848 60.7555 35.1302 60.0649 35.2312C59.2417 35.3502 58.4105 35.4061 57.5787 35.3985H54.9193C54.1762 35.4013 53.4369 35.293 52.7258 35.0771C52.0336 34.8942 51.4217 34.4867 50.9862 33.9185C50.5506 33.3503 50.3161 32.6535 50.3192 31.9376C50.319 30.8379 50.5643 29.752 51.0374 28.7592C51.1971 28.3659 51.3743 27.9113 51.569 27.3952C51.7459 26.9488 51.9585 26.4081 52.2067 25.773C52.4549 25.138 52.7563 24.4007 53.1107 23.5611C53.7357 21.9856 54.7683 20.6044 56.1027 19.559C57.4777 18.5317 59.1603 18.001 60.876 18.0535L62.0726 18.0616ZM61.3014 23.8517C61.3716 23.7327 61.4087 23.5972 61.4087 23.4591C61.4087 23.3209 61.3716 23.1853 61.3014 23.0664C61.2287 22.9593 61.1292 22.8732 61.0127 22.8168C60.8962 22.7603 60.7669 22.7355 60.6378 22.745C60.2998 22.7152 59.9617 22.8015 59.6793 22.9898C59.4205 23.2483 59.221 23.5599 59.0946 23.9032L56.7544 29.7191C56.4885 30.3714 56.4089 30.7919 56.5156 30.9806C56.5898 31.0838 56.691 31.1647 56.8079 31.2145C56.9249 31.2642 57.0533 31.2811 57.1791 31.2631C57.5192 31.2762 57.856 31.1915 58.1494 31.0189C58.4513 30.7971 58.6784 30.4885 58.8005 30.1342L61.3014 23.8517Z" fill="#00D179"/>
<path d="M81.9454 19.6394C82.8936 20.7046 83.1283 22.2249 82.6495 24.2004C82.6434 24.2797 82.6256 24.3578 82.5965 24.4319C82.5388 24.6219 82.4397 24.7967 82.3064 24.9439C82.173 25.091 82.0088 25.2067 81.8253 25.2828C81.4269 25.4422 81.0009 25.5209 80.5718 25.5143H75.9224L76.5601 23.8391C76.6299 23.7203 76.6678 23.5856 76.6702 23.4479C76.6724 23.3102 76.6391 23.1742 76.5734 23.0532C76.4996 22.9436 76.3977 22.8558 76.2784 22.7992C76.1591 22.7425 76.0267 22.7189 75.8952 22.7309C75.5616 22.6997 75.2277 22.7863 74.9514 22.9757C74.7004 23.2386 74.5057 23.5499 74.3793 23.8907L72.0398 29.7154C71.7739 30.3687 71.6939 30.7897 71.8001 30.9784C71.8744 31.0817 71.9754 31.1627 72.0924 31.2126C72.2094 31.2624 72.3378 31.2794 72.4637 31.2616C72.8003 31.2763 73.1338 31.1911 73.4223 31.0168C73.7179 30.7898 73.9398 30.4805 74.0599 30.1276L74.6188 28.7879H79.485C79.8158 28.7679 80.1448 28.8486 80.4288 29.0194C80.65 29.1743 80.6721 29.449 80.4951 29.8437L80.3883 30.101C79.9753 31.0817 79.4724 32.0218 78.8857 32.9094C78.4657 33.5465 77.9233 34.0939 77.2902 34.5197C76.7009 34.894 76.0395 35.14 75.3488 35.2415C74.5256 35.3605 73.6944 35.4164 72.8626 35.4089H70.1788C69.44 35.4122 68.7049 35.3035 67.9986 35.0867C67.3439 34.896 66.7609 34.5149 66.3235 33.9918C65.8713 33.4034 65.6196 32.6855 65.6053 31.9436C65.6049 30.8426 65.8503 29.7555 66.3235 28.7614C66.4832 28.3682 66.6604 27.9129 66.855 27.3959C67.032 26.9491 67.2448 26.4084 67.4935 25.7738C67.7423 25.1392 68.0436 24.4007 68.3975 23.5582C69.0076 21.9769 70.0371 20.5917 71.3755 19.5517C72.7557 18.5246 74.4423 17.9936 76.1621 18.0446H77.3322C79.4595 18.0427 80.9972 18.5743 81.9454 19.6394Z" fill="#00D179"/>
<path d="M92.8588 35.3613H85.5196C84.78 35.3649 84.0444 35.2527 83.3394 35.0288C82.6828 34.831 82.1027 34.4364 81.6775 33.8985C81.2305 33.2783 80.9847 32.5358 80.9734 31.7714C80.9711 30.6333 81.2159 29.5084 81.6908 28.4742C81.7798 28.2082 81.9127 27.8447 82.0897 27.3837C82.2312 27.0111 82.4173 26.5235 82.6478 25.9209C82.8784 25.3182 83.1709 24.5915 83.5252 23.7407C84.1276 22.1194 85.1564 20.6909 86.5032 19.6058C87.8711 18.5499 89.5625 18.0002 91.2898 18.0501H91.4756C92.4018 18.0339 93.3169 18.2534 94.135 18.6879C94.3112 18.4939 94.5233 18.3359 94.7595 18.2227C95.0309 18.1009 95.3263 18.0419 95.6237 18.0501H99.8786L92.8588 35.3613ZM87.4071 29.4791C87.1236 30.1549 87.0395 30.5907 87.155 30.7864C87.2308 30.8923 87.3339 30.9757 87.4534 31.0276C87.5728 31.0796 87.7041 31.0981 87.8333 31.0813C88.0819 31.0949 88.3301 31.0485 88.5569 30.9458C88.7837 30.843 88.9824 30.6872 89.1361 30.4914L90.8113 26.3566L91.6887 24.0356C91.758 23.9121 91.7956 23.7733 91.7979 23.6318C91.8002 23.4901 91.7673 23.3502 91.7019 23.2246C91.6305 23.1121 91.5295 23.0216 91.41 22.9628C91.2904 22.904 91.157 22.8793 91.0243 22.8913C90.6895 22.8594 90.3544 22.9495 90.0806 23.1449C89.8316 23.4112 89.6375 23.7239 89.5092 24.0651L87.4071 29.4791Z" fill="#00D179"/>
<path d="M93.9713 35.3625H99.6869L104.741 22.9448C104.771 22.933 105.786 22.9204 107.105 22.9145C107.714 21.4971 108.663 20.2516 109.867 19.2885C110.582 18.7218 111.4 18.3013 112.277 18.0513H101.019L93.9713 35.3625Z" fill="#00D179"/>
<path d="M118.298 35.3612H110.347C109.608 35.3649 108.872 35.2527 108.167 35.0287C107.508 34.829 106.924 34.4351 106.492 33.8984C106.038 33.2861 105.786 32.5469 105.774 31.7846C105.773 30.6509 106.018 29.5304 106.492 28.5006C106.598 28.1639 106.749 27.7461 106.944 27.2472C107.104 26.8216 107.303 26.2941 107.542 25.6649C107.781 25.0358 108.078 24.2869 108.433 23.4184C108.998 21.8967 109.993 20.5713 111.295 19.6021C112.663 18.5461 114.354 17.9964 116.081 18.0464H119.684L120.586 15.8131C120.749 15.4207 121.027 15.0866 121.383 14.8546C121.722 14.6288 122.12 14.5085 122.527 14.5088H126.835L118.298 35.3612ZM112.208 29.4798C111.925 30.1556 111.84 30.5914 111.956 30.787C112.032 30.893 112.135 30.9763 112.255 31.0282C112.374 31.0802 112.506 31.0987 112.635 31.0819C112.971 31.0963 113.303 31.0128 113.593 30.8416C113.893 30.6111 114.116 30.2948 114.232 29.9347L116.598 23.7199C116.668 23.5965 116.705 23.4577 116.707 23.3161C116.71 23.1745 116.677 23.0345 116.612 22.9089C116.54 22.7963 116.439 22.7056 116.32 22.6466C116.199 22.5877 116.066 22.563 115.933 22.5749C115.599 22.5434 115.264 22.6334 114.989 22.8285C114.737 23.1027 114.543 23.4246 114.418 23.7752L112.208 29.4798Z" fill="#00D179"/>
<path d="M98.885 37.9845H101.062C101.333 37.9845 101.584 38.0169 101.813 38.0818C102.049 38.1467 102.25 38.244 102.415 38.3738C102.586 38.4977 102.719 38.6599 102.813 38.8604C102.913 39.0551 102.963 39.2851 102.963 39.5505C102.963 39.9103 102.863 40.2053 102.663 40.4353C102.462 40.6594 102.203 40.8246 101.884 40.9308V40.9485C102.073 40.9603 102.25 41.0104 102.415 41.0989C102.58 41.1814 102.722 41.2935 102.84 41.4351C102.963 41.5707 103.061 41.73 103.132 41.9129C103.202 42.0957 103.238 42.2933 103.238 42.5056C103.238 42.7888 103.179 43.0395 103.061 43.2577C102.949 43.47 102.792 43.6499 102.592 43.7974C102.391 43.9449 102.158 44.0569 101.893 44.1336C101.628 44.2103 101.342 44.2486 101.035 44.2486H98.885V37.9845ZM99.7344 40.5857H100.893C101.053 40.5857 101.203 40.571 101.345 40.5415C101.486 40.5061 101.61 40.45 101.716 40.3734C101.822 40.2967 101.905 40.1994 101.964 40.0814C102.029 39.9634 102.061 39.8189 102.061 39.6479C102.061 39.4001 101.981 39.1848 101.822 39.002C101.663 38.8191 101.412 38.7277 101.07 38.7277H99.7344V40.5857ZM99.7344 43.5054H100.982C101.112 43.5054 101.253 43.4936 101.407 43.47C101.566 43.4406 101.713 43.3875 101.849 43.3108C101.984 43.2282 102.099 43.1191 102.194 42.9834C102.288 42.8478 102.335 42.6679 102.335 42.4437C102.335 42.0721 102.214 41.7949 101.972 41.612C101.731 41.4233 101.404 41.3289 100.991 41.3289H99.7344V43.5054ZM104.458 37.9845H108.501V38.7808H105.307V40.6476H108.28V41.4439H105.307V43.4523H108.661V44.2486H104.458V37.9845ZM111.176 38.7808H109.159V37.9845H114.043V38.7808H112.026V44.2486H111.176V38.7808ZM116.099 37.9845H116.869L119.55 44.2486H118.559L117.931 42.7003H114.949L114.33 44.2486H113.339L116.099 37.9845ZM117.621 41.9571L116.453 39.0816H116.435L115.25 41.9571H117.621Z" fill="#707070"/>
<path d="M128.261 13.4235H127.589V13.1581H129.217V13.4235H128.544V15.2461H128.261V13.4235ZM129.497 13.1581H129.919L130.583 14.7389H130.595L131.252 13.1581H131.674V15.2461H131.391V13.5297H131.385L130.68 15.2461H130.491L129.787 13.5297H129.781V15.2461H129.497V13.1581Z" fill="#00D179"/>
</g>
<g clip-path="url(#clip1_80_1561)">
<path d="M39.468 76.0047L37.4992 84H34.9453L34.1797 80.5164C34.1651 80.4508 34.1414 80.3396 34.1086 80.1828C34.0794 80.026 34.0448 79.8474 34.0047 79.6469C33.9682 79.4464 33.9336 79.2495 33.9008 79.0563C33.8716 78.8594 33.8497 78.6935 33.8352 78.5586C33.8206 78.6935 33.7969 78.8594 33.7641 79.0563C33.7312 79.2495 33.6948 79.4464 33.6547 79.6469C33.6182 79.8474 33.5818 80.026 33.5453 80.1828C33.5125 80.3396 33.4888 80.4508 33.4742 80.5164L32.7031 84H30.1492L28.1695 76.0047H30.2531L31.1227 80.0133C31.1445 80.1117 31.1737 80.2521 31.2102 80.4344C31.2503 80.613 31.2904 80.8099 31.3305 81.025C31.3742 81.2365 31.4143 81.4406 31.4508 81.6375C31.4872 81.8344 31.5128 81.9984 31.5273 82.1297C31.5565 81.9036 31.5948 81.6466 31.6422 81.3586C31.6932 81.0706 31.7479 80.7789 31.8062 80.4836C31.8682 80.1846 31.9266 79.9076 31.9812 79.6523C32.0359 79.3971 32.0833 79.1893 32.1234 79.0289L32.8289 76.0047H34.8305L35.5141 79.0289C35.5505 79.1857 35.5961 79.3935 35.6508 79.6523C35.7091 79.9076 35.7674 80.1846 35.8258 80.4836C35.8878 80.7826 35.9443 81.0779 35.9953 81.3695C36.0464 81.6576 36.0846 81.9109 36.1102 82.1297C36.132 81.9474 36.1685 81.7177 36.2195 81.4406C36.2706 81.1599 36.3216 80.8883 36.3727 80.6258C36.4273 80.3596 36.4693 80.1591 36.4984 80.0242L37.3844 76.0047H39.468ZM45.7484 84H41.0016V76.0047H45.7484V77.7383H43.1617V78.9961H45.557V80.7297H43.1617V82.2391H45.7484V84ZM47.6484 84V76.0047H49.8086V82.2555H52.8875V84H47.6484ZM58.2273 77.6617C57.9721 77.6617 57.7443 77.7164 57.5437 77.8258C57.3432 77.9315 57.1719 78.0865 57.0297 78.2906C56.8875 78.4948 56.7781 78.7445 56.7016 79.0398C56.6286 79.3315 56.5922 79.6633 56.5922 80.0352C56.5922 80.5383 56.656 80.9612 56.7836 81.3039C56.9112 81.6466 57.1044 81.9055 57.3633 82.0805C57.6258 82.2555 57.9539 82.343 58.3477 82.343C58.7049 82.343 59.0477 82.2938 59.3758 82.1953C59.7076 82.0969 60.0411 81.9784 60.3766 81.8398V83.6664C60.0229 83.8232 59.6602 83.9362 59.2883 84.0055C58.9201 84.0747 58.5281 84.1094 58.1125 84.1094C57.2448 84.1094 56.5339 83.938 55.9797 83.5953C55.4292 83.249 55.0227 82.7695 54.7602 82.157C54.5013 81.5445 54.3719 80.8336 54.3719 80.0242C54.3719 79.419 54.4557 78.8648 54.6234 78.3617C54.7948 77.8586 55.0445 77.4229 55.3727 77.0547C55.7008 76.6828 56.1055 76.3966 56.5867 76.1961C57.0716 75.9919 57.6258 75.8898 58.2492 75.8898C58.6357 75.8898 59.0422 75.9354 59.4687 76.0266C59.899 76.1141 60.3182 76.2563 60.7266 76.4531L60.0648 78.1539C59.7732 78.0154 59.4779 77.8987 59.1789 77.8039C58.8799 77.7091 58.5628 77.6617 58.2273 77.6617ZM69.9219 79.9914C69.9219 80.6076 69.8471 81.169 69.6977 81.6758C69.5518 82.1789 69.3221 82.6128 69.0086 82.9773C68.6951 83.3419 68.2922 83.6227 67.8 83.8195C67.3078 84.0128 66.719 84.1094 66.0336 84.1094C65.3628 84.1094 64.7812 84.0128 64.2891 83.8195C63.8005 83.6227 63.3977 83.3438 63.0805 82.9828C62.7633 82.6182 62.5281 82.1826 62.375 81.6758C62.2219 81.169 62.1453 80.6039 62.1453 79.9805C62.1453 79.1492 62.282 78.4273 62.5555 77.8148C62.8326 77.1987 63.2591 76.7229 63.8352 76.3875C64.4112 76.0484 65.1477 75.8789 66.0445 75.8789C66.956 75.8789 67.6961 76.0484 68.2648 76.3875C68.8372 76.7266 69.2565 77.2042 69.5227 77.8203C69.7888 78.4365 69.9219 79.1602 69.9219 79.9914ZM64.4203 79.9914C64.4203 80.4727 64.475 80.8865 64.5844 81.2328C64.6937 81.5792 64.8669 81.8453 65.1039 82.0313C65.3409 82.2172 65.6508 82.3102 66.0336 82.3102C66.431 82.3102 66.7464 82.2172 66.9797 82.0313C67.2167 81.8453 67.3862 81.5792 67.4883 81.2328C67.594 80.8865 67.6469 80.4727 67.6469 79.9914C67.6469 79.2695 67.5266 78.699 67.2859 78.2797C67.0453 77.8604 66.6315 77.6508 66.0445 77.6508C65.6544 77.6508 65.3391 77.7456 65.0984 77.9352C64.8615 78.1247 64.6883 78.3945 64.5789 78.7445C64.4732 79.0945 64.4203 79.5102 64.4203 79.9914ZM75.3492 84L73.7141 78.2414H73.6648C73.6794 78.3909 73.694 78.5932 73.7086 78.8484C73.7268 79.1036 73.7432 79.3789 73.7578 79.6742C73.7724 79.9695 73.7797 80.2539 73.7797 80.5273V84H71.8656V76.0047H74.7422L76.4102 81.6813H76.4539L78.0891 76.0047H80.9711V84H78.9859V80.4945C78.9859 80.243 78.9896 79.9732 78.9969 79.6852C79.0078 79.3935 79.0188 79.1201 79.0297 78.8648C79.0443 78.606 79.057 78.4018 79.068 78.2523H79.0188L77.4055 84H75.3492ZM87.9406 84H83.1938V76.0047H87.9406V77.7383H85.3539V78.9961H87.7492V80.7297H85.3539V82.2391H87.9406V84ZM35.1586 102H33.6437L31.1336 98.3797L30.3625 99.0086V102H29.0555V94.0047H30.3625V97.8219C30.7198 97.3844 31.0753 96.9633 31.4289 96.5586L33.5891 94.0047H35.0766C33.6802 95.6453 32.6794 96.8138 32.0742 97.5102L35.1586 102ZM41.6797 102L40.8812 99.7797H37.8242L37.0422 102H35.6641L38.6555 93.9719H40.0773L43.0687 102H41.6797ZM40.5367 98.6531L39.7875 96.4766C39.7328 96.3307 39.6562 96.101 39.5578 95.7875C39.463 95.474 39.3974 95.2443 39.3609 95.0984C39.2625 95.5469 39.1185 96.0372 38.9289 96.5695L38.207 98.6531H40.5367ZM44.6242 102V94.0047H45.9313V102H44.6242ZM48.5477 102V94.0047H49.8547V100.879H53.2398V102H48.5477ZM60.0781 102L59.2797 99.7797H56.2227L55.4406 102H54.0625L57.0539 93.9719H58.4758L61.4672 102H60.0781ZM58.9352 98.6531L58.1859 96.4766C58.1312 96.3307 58.0547 96.101 57.9562 95.7875C57.8615 95.474 57.7958 95.2443 57.7594 95.0984C57.6609 95.5469 57.5169 96.0372 57.3273 96.5695L56.6055 98.6531H58.9352ZM67.6328 99.8289C67.6328 100.54 67.3758 101.098 66.8617 101.502C66.3477 101.907 65.6385 102.109 64.7344 102.109C63.8302 102.109 63.0901 101.969 62.5141 101.688V100.452C62.8786 100.624 63.2651 100.759 63.6734 100.857C64.0854 100.955 64.4682 101.005 64.8219 101.005C65.3396 101.005 65.7206 100.906 65.9648 100.709C66.2128 100.513 66.3367 100.248 66.3367 99.9164C66.3367 99.6174 66.2237 99.3641 65.9977 99.1563C65.7716 98.9484 65.3049 98.7023 64.5977 98.418C63.8685 98.1227 63.3544 97.7854 63.0555 97.4063C62.7565 97.0271 62.607 96.5714 62.607 96.0391C62.607 95.3719 62.844 94.8469 63.318 94.4641C63.7919 94.0813 64.4281 93.8898 65.2266 93.8898C65.9922 93.8898 66.7542 94.0576 67.5125 94.393L67.0969 95.4594C66.3859 95.1604 65.7516 95.0109 65.1937 95.0109C64.7708 95.0109 64.45 95.1039 64.2312 95.2898C64.0125 95.4721 63.9031 95.7146 63.9031 96.0172C63.9031 96.225 63.9469 96.4036 64.0344 96.5531C64.1219 96.699 64.2659 96.8375 64.4664 96.9688C64.6669 97.1 65.0279 97.2732 65.5492 97.4883C66.1362 97.7326 66.5664 97.9604 66.8398 98.1719C67.1133 98.3833 67.3138 98.6221 67.4414 98.8883C67.569 99.1544 67.6328 99.468 67.6328 99.8289ZM75.9859 102H74.6734V98.3961H70.9875V102H69.6805V94.0047H70.9875V97.275H74.6734V94.0047H75.9859V102ZM85.457 102L83.1383 95.3227H83.0945C83.1565 96.3143 83.1875 97.244 83.1875 98.1117V102H82.0008V94.0047H83.8437L86.0641 100.365H86.0969L88.3828 94.0047H90.2312V102H88.9734V98.0461C88.9734 97.6487 88.9826 97.131 89.0008 96.493C89.0227 95.8549 89.0409 95.4685 89.0555 95.3336H89.0117L86.6109 102H85.457ZM97.7969 102L96.9984 99.7797H93.9414L93.1594 102H91.7812L94.7727 93.9719H96.1945L99.1859 102H97.7969ZM96.6539 98.6531L95.9047 96.4766C95.85 96.3307 95.7734 96.101 95.675 95.7875C95.5802 95.474 95.5146 95.2443 95.4781 95.0984C95.3797 95.5469 95.2357 96.0372 95.0461 96.5695L94.3242 98.6531H96.6539ZM107.402 102H105.8L101.868 95.6289H101.824L101.852 95.9844C101.903 96.6625 101.928 97.2823 101.928 97.8438V102H100.741V94.0047H102.327L106.248 100.343H106.281C106.274 100.259 106.259 99.9547 106.237 99.4297C106.216 98.901 106.205 98.4891 106.205 98.1938V94.0047H107.402V102ZM109.002 104.231C108.644 104.231 108.345 104.186 108.105 104.095V102.995C108.411 103.072 108.677 103.11 108.903 103.11C109.618 103.11 109.975 102.658 109.975 101.754V94.0047H111.287V101.71C111.287 102.527 111.092 103.15 110.702 103.58C110.316 104.014 109.749 104.231 109.002 104.231ZM120.166 102H118.853V98.3961H115.167V102H113.86V94.0047H115.167V97.275H118.853V94.0047H120.166V102ZM122.771 102V94.0047H124.078V102H122.771Z" fill="#8C98A4"/>
<path d="M37.4391 115.802C37.4391 116.324 37.357 116.801 37.193 117.235C37.0289 117.665 36.7974 118.001 36.4984 118.241C36.2031 118.482 35.8604 118.602 35.4703 118.602C35.1823 118.602 34.9326 118.526 34.7211 118.373C34.5096 118.22 34.3674 118.012 34.2945 117.749H34.2289C34.0503 118.034 33.8297 118.247 33.5672 118.389C33.3047 118.531 33.0094 118.602 32.6812 118.602C32.087 118.602 31.6185 118.411 31.2758 118.028C30.9367 117.645 30.7672 117.128 30.7672 116.475C30.7672 115.724 30.9932 115.115 31.4453 114.648C31.8974 114.178 32.5044 113.943 33.2664 113.943C33.5435 113.943 33.8497 113.968 34.1852 114.02C34.5242 114.067 34.825 114.134 35.0875 114.222L34.9672 116.765V116.896C34.9672 117.479 35.1568 117.771 35.5359 117.771C35.824 117.771 36.0518 117.585 36.2195 117.213C36.3909 116.841 36.4766 116.367 36.4766 115.791C36.4766 115.168 36.349 114.621 36.0937 114.151C35.8385 113.677 35.4758 113.312 35.0055 113.057C34.5352 112.802 33.9956 112.674 33.3867 112.674C32.6102 112.674 31.9339 112.835 31.3578 113.155C30.7854 113.476 30.3479 113.936 30.0453 114.534C29.7427 115.128 29.5914 115.819 29.5914 116.606C29.5914 117.664 29.874 118.477 30.4391 119.045C31.0042 119.614 31.8154 119.898 32.8727 119.898C33.6784 119.898 34.5187 119.734 35.3937 119.406V120.303C34.6281 120.617 33.7951 120.773 32.8945 120.773C31.5456 120.773 30.4937 120.411 29.7391 119.685C28.9844 118.956 28.607 117.941 28.607 116.639C28.607 115.688 28.8112 114.842 29.2195 114.102C29.6279 113.358 30.193 112.789 30.9148 112.395C31.6404 112.002 32.4607 111.805 33.3758 111.805C34.1669 111.805 34.8706 111.969 35.4867 112.297C36.1065 112.625 36.5859 113.093 36.925 113.702C37.2677 114.308 37.4391 115.008 37.4391 115.802ZM31.8172 116.497C31.8172 117.346 32.1508 117.771 32.818 117.771C33.5216 117.771 33.9062 117.237 33.9719 116.169L34.0375 114.862C33.8078 114.8 33.5617 114.769 33.2992 114.769C32.8326 114.769 32.468 114.924 32.2055 115.234C31.9466 115.543 31.8172 115.965 31.8172 116.497ZM45.7211 119.844H44.2062L41.6961 116.223L40.925 116.852V119.844H39.618V111.848H40.925V115.666C41.2823 115.228 41.6378 114.807 41.9914 114.402L44.1516 111.848H45.6391C44.2427 113.489 43.2419 114.658 42.6367 115.354L45.7211 119.844ZM52.2422 119.844L51.4437 117.623H48.3867L47.6047 119.844H46.2266L49.218 111.816H50.6398L53.6312 119.844H52.2422ZM51.0992 116.497L50.35 114.32C50.2953 114.174 50.2187 113.945 50.1203 113.631C50.0255 113.318 49.9599 113.088 49.9234 112.942C49.825 113.391 49.681 113.881 49.4914 114.413L48.7695 116.497H51.0992ZM55.1867 119.844V111.848H56.4938V119.844H55.1867ZM59.1102 119.844V111.848H60.4172V118.723H63.8023V119.844H59.1102ZM70.6406 119.844L69.8422 117.623H66.7852L66.0031 119.844H64.625L67.6164 111.816H69.0383L72.0297 119.844H70.6406ZM69.4977 116.497L68.7484 114.32C68.6937 114.174 68.6172 113.945 68.5187 113.631C68.424 113.318 68.3583 113.088 68.3219 112.942C68.2234 113.391 68.0794 113.881 67.8898 114.413L67.168 116.497H69.4977ZM78.1953 117.673C78.1953 118.384 77.9383 118.941 77.4242 119.346C76.9102 119.751 76.201 119.953 75.2969 119.953C74.3927 119.953 73.6526 119.813 73.0766 119.532V118.296C73.4411 118.467 73.8276 118.602 74.2359 118.701C74.6479 118.799 75.0307 118.848 75.3844 118.848C75.9021 118.848 76.2831 118.75 76.5273 118.553C76.7753 118.356 76.8992 118.092 76.8992 117.76C76.8992 117.461 76.7862 117.208 76.5602 117C76.3341 116.792 75.8674 116.546 75.1602 116.262C74.431 115.966 73.9169 115.629 73.618 115.25C73.319 114.871 73.1695 114.415 73.1695 113.883C73.1695 113.216 73.4065 112.691 73.8805 112.308C74.3544 111.925 74.9906 111.734 75.7891 111.734C76.5547 111.734 77.3167 111.901 78.075 112.237L77.6594 113.303C76.9484 113.004 76.3141 112.855 75.7562 112.855C75.3333 112.855 75.0125 112.948 74.7937 113.134C74.575 113.316 74.4656 113.558 74.4656 113.861C74.4656 114.069 74.5094 114.247 74.5969 114.397C74.6844 114.543 74.8284 114.681 75.0289 114.813C75.2294 114.944 75.5904 115.117 76.1117 115.332C76.6987 115.576 77.1289 115.804 77.4023 116.016C77.6758 116.227 77.8763 116.466 78.0039 116.732C78.1315 116.998 78.1953 117.312 78.1953 117.673ZM86.5484 119.844H85.2359V116.24H81.55V119.844H80.243V111.848H81.55V115.119H85.2359V111.848H86.5484V119.844Z" fill="#00D179"/>
<path d="M0 146.766H250V144.766H0V146.766Z" fill="#E7EAF3" mask="url(#path-17-inside-3_80_1561)"/>
<path d="M64.9844 184.156L61.5938 175.297H61.5391C61.6029 175.999 61.6348 176.833 61.6348 177.799V184.156H60.5615V174.162H62.3115L65.4766 182.406H65.5312L68.7236 174.162H70.46V184.156H69.2979V177.717C69.2979 176.979 69.3298 176.176 69.3936 175.311H69.3389L65.9209 184.156H64.9844ZM71.8477 176.664H73.0645L74.7051 180.937C75.0651 181.912 75.2884 182.616 75.375 183.049H75.4297C75.4889 182.816 75.612 182.42 75.7988 181.859C75.9902 181.294 76.61 179.562 77.6582 176.664H78.875L75.6553 185.195C75.3363 186.038 74.9626 186.635 74.5342 186.986C74.1104 187.342 73.5885 187.52 72.9688 187.52C72.6224 187.52 72.2806 187.481 71.9434 187.403V186.494C72.194 186.549 72.4743 186.576 72.7842 186.576C73.5635 186.576 74.1195 186.139 74.4521 185.264L74.8691 184.197L71.8477 176.664ZM88.1787 175.058C87.0804 175.058 86.2122 175.424 85.5742 176.158C84.9408 176.887 84.624 177.888 84.624 179.159C84.624 180.467 84.9294 181.479 85.54 182.194C86.1553 182.905 87.0303 183.261 88.165 183.261C88.8623 183.261 89.6576 183.135 90.5508 182.885V183.903C89.8581 184.163 89.0036 184.293 87.9873 184.293C86.5153 184.293 85.3783 183.846 84.5762 182.953C83.7786 182.06 83.3799 180.791 83.3799 179.146C83.3799 178.116 83.5713 177.213 83.9541 176.438C84.3415 175.664 84.8975 175.067 85.6221 174.647C86.3512 174.228 87.208 174.019 88.1924 174.019C89.2406 174.019 90.1566 174.21 90.9404 174.593L90.4482 175.591C89.6917 175.235 88.9352 175.058 88.1787 175.058ZM97.168 184.156L96.9424 183.09H96.8877C96.514 183.559 96.1403 183.878 95.7666 184.047C95.3975 184.211 94.9349 184.293 94.3789 184.293C93.6361 184.293 93.0527 184.102 92.6289 183.719C92.2096 183.336 92 182.791 92 182.085C92 180.572 93.21 179.779 95.6299 179.706L96.9014 179.665V179.2C96.9014 178.612 96.7738 178.179 96.5186 177.901C96.2679 177.619 95.8646 177.478 95.3086 177.478C94.6842 177.478 93.9779 177.669 93.1895 178.052L92.8408 177.184C93.21 176.983 93.6133 176.826 94.0508 176.712C94.4928 176.598 94.9349 176.541 95.377 176.541C96.2702 176.541 96.931 176.739 97.3594 177.136C97.7923 177.532 98.0088 178.168 98.0088 179.043V184.156H97.168ZM94.6045 183.356C95.3109 183.356 95.8646 183.163 96.2656 182.775C96.6712 182.388 96.874 181.846 96.874 181.148V180.472L95.7393 180.52C94.8369 180.551 94.1852 180.693 93.7842 180.943C93.3877 181.189 93.1895 181.575 93.1895 182.099C93.1895 182.509 93.3125 182.821 93.5586 183.035C93.8092 183.249 94.1579 183.356 94.6045 183.356ZM103.771 176.527C104.104 176.527 104.403 176.555 104.667 176.609L104.51 177.662C104.2 177.594 103.926 177.56 103.689 177.56C103.083 177.56 102.564 177.806 102.131 178.298C101.702 178.79 101.488 179.403 101.488 180.137V184.156H100.354V176.664H101.29L101.42 178.052H101.475C101.753 177.564 102.088 177.188 102.479 176.924C102.871 176.66 103.302 176.527 103.771 176.527ZM111.168 183.151H111.106C110.582 183.912 109.799 184.293 108.755 184.293C107.775 184.293 107.012 183.958 106.465 183.288C105.923 182.618 105.651 181.666 105.651 180.431C105.651 179.196 105.925 178.236 106.472 177.553C107.019 176.869 107.78 176.527 108.755 176.527C109.771 176.527 110.55 176.896 111.093 177.635H111.182L111.134 177.095L111.106 176.568V173.52H112.241V184.156H111.318L111.168 183.151ZM108.898 183.343C109.673 183.343 110.234 183.133 110.58 182.714C110.931 182.29 111.106 181.609 111.106 180.67V180.431C111.106 179.369 110.929 178.612 110.573 178.161C110.222 177.705 109.66 177.478 108.885 177.478C108.219 177.478 107.709 177.737 107.354 178.257C107.003 178.772 106.827 179.501 106.827 180.444C106.827 181.401 107.003 182.124 107.354 182.611C107.704 183.099 108.219 183.343 108.898 183.343ZM119.487 182.112C119.487 182.81 119.228 183.347 118.708 183.726C118.188 184.104 117.459 184.293 116.521 184.293C115.527 184.293 114.752 184.136 114.196 183.821V182.769C114.556 182.951 114.941 183.094 115.352 183.199C115.766 183.304 116.165 183.356 116.548 183.356C117.14 183.356 117.596 183.263 117.915 183.076C118.234 182.885 118.394 182.595 118.394 182.208C118.394 181.916 118.266 181.668 118.011 181.463C117.76 181.253 117.268 181.007 116.534 180.725C115.837 180.465 115.34 180.239 115.044 180.048C114.752 179.852 114.534 179.631 114.388 179.385C114.246 179.139 114.176 178.845 114.176 178.503C114.176 177.892 114.424 177.411 114.921 177.061C115.418 176.705 116.099 176.527 116.965 176.527C117.771 176.527 118.56 176.691 119.33 177.02L118.927 177.942C118.175 177.632 117.493 177.478 116.883 177.478C116.345 177.478 115.939 177.562 115.666 177.73C115.393 177.899 115.256 178.132 115.256 178.428C115.256 178.628 115.306 178.799 115.406 178.94C115.511 179.082 115.677 179.216 115.905 179.344C116.133 179.471 116.571 179.656 117.218 179.897C118.106 180.221 118.706 180.547 119.016 180.875C119.33 181.203 119.487 181.616 119.487 182.112Z" fill="#00D179"/>
<path d="M66.1328 233.344H60.5615V223.35H66.1328V224.382H61.7236V227.602H65.8662V228.627H61.7236V232.305H66.1328V233.344ZM69.9883 229.509L67.3838 225.852H68.6758L70.6514 228.723L72.6201 225.852H73.8984L71.2939 229.509L74.0352 233.344H72.75L70.6514 230.309L68.5322 233.344H67.2471L69.9883 229.509ZM78.5195 233.48C77.4349 233.48 76.5941 233.148 75.9971 232.482C75.4046 231.812 75.1084 230.867 75.1084 229.646C75.1084 228.392 75.4092 227.424 76.0107 226.74C76.6169 226.057 77.4782 225.715 78.5947 225.715C78.9548 225.715 79.3148 225.754 79.6748 225.831C80.0348 225.909 80.3174 226 80.5225 226.104L80.1738 227.068C79.9232 226.968 79.6497 226.886 79.3535 226.822C79.0573 226.754 78.7952 226.72 78.5674 226.72C77.0452 226.72 76.2842 227.69 76.2842 229.632C76.2842 230.552 76.4688 231.259 76.8379 231.751C77.2116 232.243 77.763 232.489 78.4922 232.489C79.1165 232.489 79.7568 232.355 80.4131 232.086V233.091C79.9118 233.351 79.2806 233.48 78.5195 233.48ZM87.3242 233.344V228.497C87.3242 227.886 87.1852 227.431 86.9072 227.13C86.6292 226.829 86.194 226.679 85.6016 226.679C84.8132 226.679 84.2367 226.893 83.8721 227.321C83.512 227.75 83.332 228.451 83.332 229.427V233.344H82.1973V222.707H83.332V225.927C83.332 226.314 83.3138 226.635 83.2773 226.891H83.3457C83.569 226.531 83.8857 226.248 84.2959 226.043C84.7106 225.833 85.1823 225.729 85.7109 225.729C86.627 225.729 87.3128 225.947 87.7686 226.385C88.2288 226.818 88.459 227.508 88.459 228.456V233.344H87.3242ZM95.4043 233.344L95.1787 232.277H95.124C94.7503 232.747 94.3766 233.066 94.0029 233.234C93.6338 233.398 93.1712 233.48 92.6152 233.48C91.8724 233.48 91.2891 233.289 90.8652 232.906C90.446 232.523 90.2363 231.979 90.2363 231.272C90.2363 229.759 91.4463 228.966 93.8662 228.894L95.1377 228.853V228.388C95.1377 227.8 95.0101 227.367 94.7549 227.089C94.5042 226.806 94.1009 226.665 93.5449 226.665C92.9206 226.665 92.2142 226.856 91.4258 227.239L91.0771 226.371C91.4463 226.171 91.8496 226.013 92.2871 225.899C92.7292 225.785 93.1712 225.729 93.6133 225.729C94.5065 225.729 95.1673 225.927 95.5957 226.323C96.0286 226.72 96.2451 227.355 96.2451 228.23V233.344H95.4043ZM92.8408 232.544C93.5472 232.544 94.1009 232.35 94.502 231.963C94.9076 231.576 95.1104 231.033 95.1104 230.336V229.659L93.9756 229.707C93.0732 229.739 92.4215 229.88 92.0205 230.131C91.624 230.377 91.4258 230.762 91.4258 231.286C91.4258 231.696 91.5488 232.008 91.7949 232.223C92.0456 232.437 92.3942 232.544 92.8408 232.544ZM103.717 233.344V228.497C103.717 227.886 103.578 227.431 103.3 227.13C103.022 226.829 102.587 226.679 101.994 226.679C101.21 226.679 100.636 226.891 100.271 227.314C99.9069 227.738 99.7246 228.438 99.7246 229.413V233.344H98.5898V225.852H99.5127L99.6973 226.877H99.752C99.9844 226.508 100.31 226.223 100.729 226.022C101.149 225.817 101.616 225.715 102.131 225.715C103.033 225.715 103.712 225.934 104.168 226.371C104.624 226.804 104.852 227.499 104.852 228.456V233.344H103.717ZM113.321 225.852V226.569L111.934 226.733C112.061 226.893 112.175 227.103 112.275 227.362C112.376 227.618 112.426 227.907 112.426 228.23C112.426 228.964 112.175 229.55 111.674 229.987C111.173 230.425 110.484 230.644 109.609 230.644C109.386 230.644 109.176 230.625 108.98 230.589C108.497 230.844 108.256 231.165 108.256 231.553C108.256 231.758 108.34 231.91 108.509 232.011C108.677 232.106 108.967 232.154 109.377 232.154H110.703C111.514 232.154 112.136 232.325 112.569 232.667C113.007 233.009 113.226 233.506 113.226 234.157C113.226 234.987 112.893 235.618 112.228 236.051C111.562 236.488 110.591 236.707 109.315 236.707C108.336 236.707 107.579 236.525 107.046 236.16C106.517 235.796 106.253 235.281 106.253 234.615C106.253 234.16 106.399 233.765 106.69 233.433C106.982 233.1 107.392 232.874 107.921 232.756C107.729 232.669 107.568 232.535 107.436 232.353C107.308 232.17 107.244 231.958 107.244 231.717C107.244 231.443 107.317 231.204 107.463 230.999C107.609 230.794 107.839 230.596 108.153 230.404C107.766 230.245 107.449 229.974 107.203 229.591C106.962 229.208 106.841 228.771 106.841 228.278C106.841 227.458 107.087 226.827 107.579 226.385C108.071 225.938 108.769 225.715 109.671 225.715C110.063 225.715 110.416 225.76 110.73 225.852H113.321ZM107.347 234.602C107.347 235.007 107.518 235.315 107.859 235.524C108.201 235.734 108.691 235.839 109.329 235.839C110.282 235.839 110.986 235.695 111.441 235.408C111.902 235.126 112.132 234.741 112.132 234.253C112.132 233.847 112.007 233.565 111.756 233.405C111.505 233.25 111.034 233.173 110.341 233.173H108.98C108.465 233.173 108.064 233.296 107.777 233.542C107.49 233.788 107.347 234.141 107.347 234.602ZM107.962 228.251C107.962 228.775 108.11 229.172 108.406 229.44C108.702 229.709 109.115 229.844 109.644 229.844C110.751 229.844 111.305 229.306 111.305 228.23C111.305 227.105 110.744 226.542 109.623 226.542C109.09 226.542 108.68 226.686 108.393 226.973C108.105 227.26 107.962 227.686 107.962 228.251ZM118.024 233.48C116.917 233.48 116.042 233.143 115.399 232.469C114.761 231.794 114.442 230.858 114.442 229.659C114.442 228.451 114.739 227.492 115.331 226.781C115.928 226.07 116.728 225.715 117.73 225.715C118.669 225.715 119.412 226.025 119.959 226.645C120.506 227.26 120.779 228.073 120.779 229.085V229.803H115.618C115.641 230.682 115.862 231.35 116.281 231.806C116.705 232.261 117.3 232.489 118.065 232.489C118.872 232.489 119.67 232.321 120.458 231.983V232.995C120.057 233.168 119.676 233.291 119.316 233.364C118.961 233.442 118.53 233.48 118.024 233.48ZM117.717 226.665C117.115 226.665 116.634 226.861 116.274 227.253C115.919 227.645 115.709 228.187 115.646 228.88H119.562C119.562 228.164 119.403 227.618 119.084 227.239C118.765 226.856 118.309 226.665 117.717 226.665Z" fill="#132144"/>
<path d="M64.9844 282.531L61.5938 273.672H61.5391C61.6029 274.374 61.6348 275.208 61.6348 276.174V282.531H60.5615V272.537H62.3115L65.4766 280.781H65.5312L68.7236 272.537H70.46V282.531H69.2979V276.092C69.2979 275.354 69.3298 274.551 69.3936 273.686H69.3389L65.9209 282.531H64.9844ZM71.8477 275.039H73.0645L74.7051 279.312C75.0651 280.287 75.2884 280.991 75.375 281.424H75.4297C75.4889 281.191 75.612 280.795 75.7988 280.234C75.9902 279.669 76.61 277.938 77.6582 275.039H78.875L75.6553 283.57C75.3363 284.413 74.9626 285.01 74.5342 285.361C74.1104 285.717 73.5885 285.895 72.9688 285.895C72.6224 285.895 72.2806 285.856 71.9434 285.778V284.869C72.194 284.924 72.4743 284.951 72.7842 284.951C73.5635 284.951 74.1195 284.514 74.4521 283.639L74.8691 282.572L71.8477 275.039ZM88.1787 273.433C87.0804 273.433 86.2122 273.799 85.5742 274.533C84.9408 275.262 84.624 276.263 84.624 277.534C84.624 278.842 84.9294 279.854 85.54 280.569C86.1553 281.28 87.0303 281.636 88.165 281.636C88.8623 281.636 89.6576 281.51 90.5508 281.26V282.278C89.8581 282.538 89.0036 282.668 87.9873 282.668C86.5153 282.668 85.3783 282.221 84.5762 281.328C83.7786 280.435 83.3799 279.166 83.3799 277.521C83.3799 276.491 83.5713 275.588 83.9541 274.813C84.3415 274.039 84.8975 273.442 85.6221 273.022C86.3512 272.603 87.208 272.394 88.1924 272.394C89.2406 272.394 90.1566 272.585 90.9404 272.968L90.4482 273.966C89.6917 273.61 88.9352 273.433 88.1787 273.433ZM99.0273 278.778C99.0273 280 98.7197 280.954 98.1045 281.643C97.4893 282.326 96.6393 282.668 95.5547 282.668C94.8848 282.668 94.29 282.511 93.7705 282.196C93.251 281.882 92.8499 281.431 92.5674 280.843C92.2848 280.255 92.1436 279.567 92.1436 278.778C92.1436 277.557 92.4489 276.607 93.0596 275.928C93.6702 275.244 94.5179 274.902 95.6025 274.902C96.6507 274.902 97.4824 275.251 98.0977 275.948C98.7174 276.646 99.0273 277.589 99.0273 278.778ZM93.3193 278.778C93.3193 279.735 93.5107 280.465 93.8936 280.966C94.2764 281.467 94.8392 281.718 95.582 281.718C96.3249 281.718 96.8877 281.469 97.2705 280.973C97.6579 280.471 97.8516 279.74 97.8516 278.778C97.8516 277.826 97.6579 277.104 97.2705 276.611C96.8877 276.115 96.3203 275.866 95.5684 275.866C94.8255 275.866 94.265 276.11 93.8867 276.598C93.5085 277.085 93.3193 277.812 93.3193 278.778ZM106.15 282.531V277.685C106.15 277.074 106.011 276.618 105.733 276.317C105.455 276.017 105.02 275.866 104.428 275.866C103.644 275.866 103.07 276.078 102.705 276.502C102.34 276.926 102.158 277.625 102.158 278.601V282.531H101.023V275.039H101.946L102.131 276.064H102.186C102.418 275.695 102.744 275.41 103.163 275.21C103.582 275.005 104.049 274.902 104.564 274.902C105.467 274.902 106.146 275.121 106.602 275.559C107.057 275.992 107.285 276.687 107.285 277.644V282.531H106.15ZM112.043 281.731C112.243 281.731 112.437 281.718 112.624 281.69C112.811 281.659 112.959 281.627 113.068 281.595V282.463C112.945 282.522 112.763 282.57 112.521 282.606C112.285 282.647 112.07 282.668 111.879 282.668C110.43 282.668 109.705 281.905 109.705 280.378V275.921H108.632V275.374L109.705 274.902L110.184 273.303H110.84V275.039H113.014V275.921H110.84V280.33C110.84 280.781 110.947 281.128 111.161 281.369C111.375 281.611 111.669 281.731 112.043 281.731ZM119.18 282.531L118.954 281.465H118.899C118.526 281.934 118.152 282.253 117.778 282.422C117.409 282.586 116.947 282.668 116.391 282.668C115.648 282.668 115.064 282.477 114.641 282.094C114.221 281.711 114.012 281.166 114.012 280.46C114.012 278.947 115.222 278.154 117.642 278.081L118.913 278.04V277.575C118.913 276.987 118.785 276.554 118.53 276.276C118.28 275.994 117.876 275.853 117.32 275.853C116.696 275.853 115.99 276.044 115.201 276.427L114.853 275.559C115.222 275.358 115.625 275.201 116.062 275.087C116.505 274.973 116.947 274.916 117.389 274.916C118.282 274.916 118.943 275.114 119.371 275.511C119.804 275.907 120.021 276.543 120.021 277.418V282.531H119.18ZM116.616 281.731C117.323 281.731 117.876 281.538 118.277 281.15C118.683 280.763 118.886 280.221 118.886 279.523V278.847L117.751 278.895C116.849 278.926 116.197 279.068 115.796 279.318C115.399 279.564 115.201 279.95 115.201 280.474C115.201 280.884 115.324 281.196 115.57 281.41C115.821 281.624 116.17 281.731 116.616 281.731ZM125.359 282.668C124.275 282.668 123.434 282.335 122.837 281.67C122.244 281 121.948 280.054 121.948 278.833C121.948 277.58 122.249 276.611 122.851 275.928C123.457 275.244 124.318 274.902 125.435 274.902C125.795 274.902 126.155 274.941 126.515 275.019C126.875 275.096 127.157 275.187 127.362 275.292L127.014 276.256C126.763 276.156 126.49 276.074 126.193 276.01C125.897 275.941 125.635 275.907 125.407 275.907C123.885 275.907 123.124 276.878 123.124 278.819C123.124 279.74 123.309 280.446 123.678 280.938C124.051 281.431 124.603 281.677 125.332 281.677C125.956 281.677 126.597 281.542 127.253 281.273V282.278C126.752 282.538 126.12 282.668 125.359 282.668ZM131.457 281.731C131.658 281.731 131.851 281.718 132.038 281.69C132.225 281.659 132.373 281.627 132.482 281.595V282.463C132.359 282.522 132.177 282.57 131.936 282.606C131.699 282.647 131.484 282.668 131.293 282.668C129.844 282.668 129.119 281.905 129.119 280.378V275.921H128.046V275.374L129.119 274.902L129.598 273.303H130.254V275.039H132.428V275.921H130.254V280.33C130.254 280.781 130.361 281.128 130.575 281.369C130.789 281.611 131.083 281.731 131.457 281.731ZM138.819 280.487C138.819 281.185 138.56 281.722 138.04 282.101C137.521 282.479 136.791 282.668 135.853 282.668C134.859 282.668 134.084 282.511 133.528 282.196V281.144C133.888 281.326 134.273 281.469 134.684 281.574C135.098 281.679 135.497 281.731 135.88 281.731C136.472 281.731 136.928 281.638 137.247 281.451C137.566 281.26 137.726 280.97 137.726 280.583C137.726 280.291 137.598 280.043 137.343 279.838C137.092 279.628 136.6 279.382 135.866 279.1C135.169 278.84 134.672 278.614 134.376 278.423C134.084 278.227 133.866 278.006 133.72 277.76C133.578 277.514 133.508 277.22 133.508 276.878C133.508 276.267 133.756 275.786 134.253 275.436C134.75 275.08 135.431 274.902 136.297 274.902C137.104 274.902 137.892 275.066 138.662 275.395L138.259 276.317C137.507 276.007 136.826 275.853 136.215 275.853C135.677 275.853 135.271 275.937 134.998 276.105C134.725 276.274 134.588 276.507 134.588 276.803C134.588 277.003 134.638 277.174 134.738 277.315C134.843 277.457 135.009 277.591 135.237 277.719C135.465 277.846 135.903 278.031 136.55 278.272C137.438 278.596 138.038 278.922 138.348 279.25C138.662 279.578 138.819 279.991 138.819 280.487Z" fill="#132144"/>
<path d="M64.9844 331.719L61.5938 322.859H61.5391C61.6029 323.561 61.6348 324.395 61.6348 325.361V331.719H60.5615V321.725H62.3115L65.4766 329.969H65.5312L68.7236 321.725H70.46V331.719H69.2979V325.279C69.2979 324.541 69.3298 323.739 69.3936 322.873H69.3389L65.9209 331.719H64.9844ZM71.8477 324.227H73.0645L74.7051 328.499C75.0651 329.474 75.2884 330.178 75.375 330.611H75.4297C75.4889 330.379 75.612 329.982 75.7988 329.422C75.9902 328.857 76.61 327.125 77.6582 324.227H78.875L75.6553 332.758C75.3363 333.601 74.9626 334.198 74.5342 334.549C74.1104 334.904 73.5885 335.082 72.9688 335.082C72.6224 335.082 72.2806 335.043 71.9434 334.966V334.057C72.194 334.111 72.4743 334.139 72.7842 334.139C73.5635 334.139 74.1195 333.701 74.4521 332.826L74.8691 331.76L71.8477 324.227ZM85.0615 331.719H83.8994V321.725H89.4707V322.757H85.0615V326.414H89.2041V327.446H85.0615V331.719ZM92.0957 331.719H90.9609V321.082H92.0957V331.719ZM100.969 327.966C100.969 329.187 100.661 330.142 100.046 330.83C99.4307 331.514 98.5807 331.855 97.4961 331.855C96.8262 331.855 96.2314 331.698 95.7119 331.384C95.1924 331.069 94.7913 330.618 94.5088 330.03C94.2262 329.442 94.085 328.754 94.085 327.966C94.085 326.744 94.3903 325.794 95.001 325.115C95.6117 324.432 96.4593 324.09 97.5439 324.09C98.5921 324.09 99.4238 324.438 100.039 325.136C100.659 325.833 100.969 326.776 100.969 327.966ZM95.2607 327.966C95.2607 328.923 95.4521 329.652 95.835 330.153C96.2178 330.655 96.7806 330.905 97.5234 330.905C98.2663 330.905 98.8291 330.657 99.2119 330.16C99.5993 329.659 99.793 328.927 99.793 327.966C99.793 327.013 99.5993 326.291 99.2119 325.799C98.8291 325.302 98.2617 325.054 97.5098 325.054C96.7669 325.054 96.2064 325.298 95.8281 325.785C95.4499 326.273 95.2607 327 95.2607 327.966ZM105.959 331.855C104.874 331.855 104.034 331.523 103.437 330.857C102.844 330.188 102.548 329.242 102.548 328.021C102.548 326.767 102.849 325.799 103.45 325.115C104.056 324.432 104.918 324.09 106.034 324.09C106.394 324.09 106.754 324.129 107.114 324.206C107.474 324.284 107.757 324.375 107.962 324.479L107.613 325.443C107.363 325.343 107.089 325.261 106.793 325.197C106.497 325.129 106.235 325.095 106.007 325.095C104.485 325.095 103.724 326.065 103.724 328.007C103.724 328.927 103.908 329.634 104.277 330.126C104.651 330.618 105.202 330.864 105.932 330.864C106.556 330.864 107.196 330.73 107.853 330.461V331.466C107.351 331.726 106.72 331.855 105.959 331.855ZM114.244 331.719L114.019 330.652H113.964C113.59 331.122 113.216 331.441 112.843 331.609C112.474 331.773 112.011 331.855 111.455 331.855C110.712 331.855 110.129 331.664 109.705 331.281C109.286 330.898 109.076 330.354 109.076 329.647C109.076 328.134 110.286 327.341 112.706 327.269L113.978 327.228V326.763C113.978 326.175 113.85 325.742 113.595 325.464C113.344 325.181 112.941 325.04 112.385 325.04C111.76 325.04 111.054 325.231 110.266 325.614L109.917 324.746C110.286 324.546 110.689 324.388 111.127 324.274C111.569 324.16 112.011 324.104 112.453 324.104C113.346 324.104 114.007 324.302 114.436 324.698C114.868 325.095 115.085 325.73 115.085 326.605V331.719H114.244ZM111.681 330.919C112.387 330.919 112.941 330.725 113.342 330.338C113.747 329.951 113.95 329.408 113.95 328.711V328.034L112.815 328.082C111.913 328.114 111.261 328.255 110.86 328.506C110.464 328.752 110.266 329.137 110.266 329.661C110.266 330.071 110.389 330.383 110.635 330.598C110.885 330.812 111.234 330.919 111.681 330.919ZM120.848 324.09C121.18 324.09 121.479 324.117 121.743 324.172L121.586 325.225C121.276 325.156 121.003 325.122 120.766 325.122C120.16 325.122 119.64 325.368 119.207 325.86C118.779 326.353 118.564 326.965 118.564 327.699V331.719H117.43V324.227H118.366L118.496 325.614H118.551C118.829 325.127 119.164 324.751 119.556 324.486C119.948 324.222 120.378 324.09 120.848 324.09ZM128.244 330.714H128.183C127.659 331.475 126.875 331.855 125.831 331.855C124.851 331.855 124.088 331.521 123.541 330.851C122.999 330.181 122.728 329.228 122.728 327.993C122.728 326.758 123.001 325.799 123.548 325.115C124.095 324.432 124.856 324.09 125.831 324.09C126.847 324.09 127.627 324.459 128.169 325.197H128.258L128.21 324.657L128.183 324.131V321.082H129.317V331.719H128.395L128.244 330.714ZM125.975 330.905C126.749 330.905 127.31 330.696 127.656 330.276C128.007 329.853 128.183 329.171 128.183 328.232V327.993C128.183 326.931 128.005 326.175 127.649 325.724C127.299 325.268 126.736 325.04 125.961 325.04C125.296 325.04 124.785 325.3 124.43 325.819C124.079 326.334 123.903 327.063 123.903 328.007C123.903 328.964 124.079 329.686 124.43 330.174C124.781 330.661 125.296 330.905 125.975 330.905ZM135.538 331.719V321.725H136.7V331.719H135.538ZM147.426 326.626C147.426 328.276 146.977 329.538 146.079 330.413C145.186 331.284 143.898 331.719 142.217 331.719H139.448V321.725H142.511C144.065 321.725 145.272 322.155 146.134 323.017C146.995 323.878 147.426 325.081 147.426 326.626ZM146.195 326.667C146.195 325.364 145.867 324.382 145.211 323.721C144.559 323.06 143.589 322.729 142.299 322.729H140.61V330.714H142.025C143.411 330.714 144.452 330.374 145.149 329.695C145.847 329.012 146.195 328.002 146.195 326.667Z" fill="#132144"/>
<path d="M64.9844 380.906L61.5938 372.047H61.5391C61.6029 372.749 61.6348 373.583 61.6348 374.549V380.906H60.5615V370.912H62.3115L65.4766 379.156H65.5312L68.7236 370.912H70.46V380.906H69.2979V374.467C69.2979 373.729 69.3298 372.926 69.3936 372.061H69.3389L65.9209 380.906H64.9844ZM71.8477 373.414H73.0645L74.7051 377.687C75.0651 378.662 75.2884 379.366 75.375 379.799H75.4297C75.4889 379.566 75.612 379.17 75.7988 378.609C75.9902 378.044 76.61 376.312 77.6582 373.414H78.875L75.6553 381.945C75.3363 382.788 74.9626 383.385 74.5342 383.736C74.1104 384.092 73.5885 384.27 72.9688 384.27C72.6224 384.27 72.2806 384.231 71.9434 384.153V383.244C72.194 383.299 72.4743 383.326 72.7842 383.326C73.5635 383.326 74.1195 382.889 74.4521 382.014L74.8691 380.947L71.8477 373.414ZM85.0615 380.906H83.8994V370.912H89.4707V371.944H85.0615V375.602H89.2041V376.634H85.0615V380.906ZM92.0957 380.906H90.9609V370.27H92.0957V380.906ZM100.969 377.153C100.969 378.375 100.661 379.329 100.046 380.018C99.4307 380.701 98.5807 381.043 97.4961 381.043C96.8262 381.043 96.2314 380.886 95.7119 380.571C95.1924 380.257 94.7913 379.806 94.5088 379.218C94.2262 378.63 94.085 377.942 94.085 377.153C94.085 375.932 94.3903 374.982 95.001 374.303C95.6117 373.619 96.4593 373.277 97.5439 373.277C98.5921 373.277 99.4238 373.626 100.039 374.323C100.659 375.021 100.969 375.964 100.969 377.153ZM95.2607 377.153C95.2607 378.11 95.4521 378.84 95.835 379.341C96.2178 379.842 96.7806 380.093 97.5234 380.093C98.2663 380.093 98.8291 379.844 99.2119 379.348C99.5993 378.846 99.793 378.115 99.793 377.153C99.793 376.201 99.5993 375.479 99.2119 374.986C98.8291 374.49 98.2617 374.241 97.5098 374.241C96.7669 374.241 96.2064 374.485 95.8281 374.973C95.4499 375.46 95.2607 376.187 95.2607 377.153ZM107.415 371.808C106.317 371.808 105.449 372.174 104.811 372.908C104.177 373.637 103.86 374.638 103.86 375.909C103.86 377.217 104.166 378.229 104.776 378.944C105.392 379.655 106.267 380.011 107.401 380.011C108.099 380.011 108.894 379.885 109.787 379.635V380.653C109.094 380.913 108.24 381.043 107.224 381.043C105.752 381.043 104.615 380.596 103.812 379.703C103.015 378.81 102.616 377.541 102.616 375.896C102.616 374.866 102.808 373.963 103.19 373.188C103.578 372.414 104.134 371.817 104.858 371.397C105.588 370.978 106.444 370.769 107.429 370.769C108.477 370.769 109.393 370.96 110.177 371.343L109.685 372.341C108.928 371.985 108.172 371.808 107.415 371.808ZM116.404 380.906L116.179 379.84H116.124C115.75 380.309 115.377 380.628 115.003 380.797C114.634 380.961 114.171 381.043 113.615 381.043C112.872 381.043 112.289 380.852 111.865 380.469C111.446 380.086 111.236 379.541 111.236 378.835C111.236 377.322 112.446 376.529 114.866 376.456L116.138 376.415V375.95C116.138 375.362 116.01 374.929 115.755 374.651C115.504 374.369 115.101 374.228 114.545 374.228C113.921 374.228 113.214 374.419 112.426 374.802L112.077 373.934C112.446 373.733 112.85 373.576 113.287 373.462C113.729 373.348 114.171 373.291 114.613 373.291C115.507 373.291 116.167 373.489 116.596 373.886C117.029 374.282 117.245 374.918 117.245 375.793V380.906H116.404ZM113.841 380.106C114.547 380.106 115.101 379.913 115.502 379.525C115.908 379.138 116.11 378.596 116.11 377.898V377.222L114.976 377.27C114.073 377.301 113.422 377.443 113.021 377.693C112.624 377.939 112.426 378.325 112.426 378.849C112.426 379.259 112.549 379.571 112.795 379.785C113.046 379.999 113.394 380.106 113.841 380.106ZM123.008 373.277C123.34 373.277 123.639 373.305 123.903 373.359L123.746 374.412C123.436 374.344 123.163 374.31 122.926 374.31C122.32 374.31 121.8 374.556 121.367 375.048C120.939 375.54 120.725 376.153 120.725 376.887V380.906H119.59V373.414H120.526L120.656 374.802H120.711C120.989 374.314 121.324 373.938 121.716 373.674C122.108 373.41 122.538 373.277 123.008 373.277ZM130.404 379.901H130.343C129.819 380.662 129.035 381.043 127.991 381.043C127.011 381.043 126.248 380.708 125.701 380.038C125.159 379.368 124.888 378.416 124.888 377.181C124.888 375.946 125.161 374.986 125.708 374.303C126.255 373.619 127.016 373.277 127.991 373.277C129.007 373.277 129.787 373.646 130.329 374.385H130.418L130.37 373.845L130.343 373.318V370.27H131.478V380.906H130.555L130.404 379.901ZM128.135 380.093C128.91 380.093 129.47 379.883 129.816 379.464C130.167 379.04 130.343 378.359 130.343 377.42V377.181C130.343 376.119 130.165 375.362 129.81 374.911C129.459 374.455 128.896 374.228 128.121 374.228C127.456 374.228 126.945 374.487 126.59 375.007C126.239 375.522 126.063 376.251 126.063 377.194C126.063 378.151 126.239 378.874 126.59 379.361C126.941 379.849 127.456 380.093 128.135 380.093ZM139.947 380.106C140.148 380.106 140.341 380.093 140.528 380.065C140.715 380.034 140.863 380.002 140.973 379.97V380.838C140.85 380.897 140.667 380.945 140.426 380.981C140.189 381.022 139.975 381.043 139.783 381.043C138.334 381.043 137.609 380.28 137.609 378.753V374.296H136.536V373.749L137.609 373.277L138.088 371.678H138.744V373.414H140.918V374.296H138.744V378.705C138.744 379.156 138.851 379.503 139.065 379.744C139.28 379.986 139.574 380.106 139.947 380.106ZM145.895 373.277C146.227 373.277 146.526 373.305 146.79 373.359L146.633 374.412C146.323 374.344 146.049 374.31 145.812 374.31C145.206 374.31 144.687 374.556 144.254 375.048C143.826 375.54 143.611 376.153 143.611 376.887V380.906H142.477V373.414H143.413L143.543 374.802H143.598C143.876 374.314 144.211 373.938 144.603 373.674C144.994 373.41 145.425 373.277 145.895 373.277ZM151.356 381.043C150.249 381.043 149.374 380.706 148.731 380.031C148.093 379.357 147.774 378.42 147.774 377.222C147.774 376.014 148.071 375.055 148.663 374.344C149.26 373.633 150.06 373.277 151.062 373.277C152.001 373.277 152.744 373.587 153.291 374.207C153.838 374.822 154.111 375.636 154.111 376.647V377.365H148.95C148.973 378.245 149.194 378.912 149.613 379.368C150.037 379.824 150.632 380.052 151.397 380.052C152.204 380.052 153.002 379.883 153.79 379.546V380.558C153.389 380.731 153.008 380.854 152.648 380.927C152.293 381.004 151.862 381.043 151.356 381.043ZM151.049 374.228C150.447 374.228 149.966 374.424 149.606 374.815C149.251 375.207 149.041 375.75 148.978 376.442H152.895C152.895 375.727 152.735 375.18 152.416 374.802C152.097 374.419 151.641 374.228 151.049 374.228ZM159.218 381.043C158.11 381.043 157.235 380.706 156.593 380.031C155.955 379.357 155.636 378.42 155.636 377.222C155.636 376.014 155.932 375.055 156.524 374.344C157.121 373.633 157.921 373.277 158.924 373.277C159.863 373.277 160.605 373.587 161.152 374.207C161.699 374.822 161.973 375.636 161.973 376.647V377.365H156.812C156.834 378.245 157.055 378.912 157.475 379.368C157.898 379.824 158.493 380.052 159.259 380.052C160.065 380.052 160.863 379.883 161.651 379.546V380.558C161.25 380.731 160.87 380.854 160.51 380.927C160.154 381.004 159.724 381.043 159.218 381.043ZM158.91 374.228C158.309 374.228 157.828 374.424 157.468 374.815C157.112 375.207 156.903 375.75 156.839 376.442H160.756C160.756 375.727 160.596 375.18 160.277 374.802C159.958 374.419 159.503 374.228 158.91 374.228Z" fill="#132144"/>
<path d="M66.8984 423.012C66.8984 424.023 66.5521 424.803 65.8594 425.35C65.1712 425.892 64.1846 426.163 62.8994 426.163H61.7236V430.094H60.5615V420.1H63.1523C65.6497 420.1 66.8984 421.07 66.8984 423.012ZM61.7236 425.165H62.7695C63.7995 425.165 64.5446 424.999 65.0049 424.666C65.4652 424.333 65.6953 423.8 65.6953 423.066C65.6953 422.406 65.4788 421.913 65.0459 421.59C64.613 421.266 63.9385 421.104 63.0225 421.104H61.7236V425.165ZM69.9609 430.094H68.8262V419.457H69.9609V430.094ZM76.9746 430.094L76.749 429.027H76.6943C76.3206 429.497 75.9469 429.816 75.5732 429.984C75.2041 430.148 74.7415 430.23 74.1855 430.23C73.4427 430.23 72.8594 430.039 72.4355 429.656C72.0163 429.273 71.8066 428.729 71.8066 428.022C71.8066 426.509 73.0166 425.716 75.4365 425.644L76.708 425.603V425.138C76.708 424.55 76.5804 424.117 76.3252 423.839C76.0745 423.556 75.6712 423.415 75.1152 423.415C74.4909 423.415 73.7845 423.606 72.9961 423.989L72.6475 423.121C73.0166 422.921 73.4199 422.763 73.8574 422.649C74.2995 422.535 74.7415 422.479 75.1836 422.479C76.0768 422.479 76.7376 422.677 77.166 423.073C77.599 423.47 77.8154 424.105 77.8154 424.98V430.094H76.9746ZM74.4111 429.294C75.1175 429.294 75.6712 429.1 76.0723 428.713C76.4779 428.326 76.6807 427.783 76.6807 427.086V426.409L75.5459 426.457C74.6436 426.489 73.9919 426.63 73.5908 426.881C73.1943 427.127 72.9961 427.512 72.9961 428.036C72.9961 428.446 73.1191 428.758 73.3652 428.973C73.6159 429.187 73.9645 429.294 74.4111 429.294ZM85.2871 430.094V425.247C85.2871 424.636 85.1481 424.181 84.8701 423.88C84.5921 423.579 84.1569 423.429 83.5645 423.429C82.7806 423.429 82.2064 423.641 81.8418 424.064C81.4772 424.488 81.2949 425.188 81.2949 426.163V430.094H80.1602V422.602H81.083L81.2676 423.627H81.3223C81.5547 423.258 81.8805 422.973 82.2998 422.772C82.7191 422.567 83.1862 422.465 83.7012 422.465C84.6035 422.465 85.2826 422.684 85.7383 423.121C86.194 423.554 86.4219 424.249 86.4219 425.206V430.094H85.2871ZM91.1797 429.294C91.3802 429.294 91.5739 429.28 91.7607 429.253C91.9476 429.221 92.0957 429.189 92.2051 429.157V430.025C92.082 430.085 91.8997 430.132 91.6582 430.169C91.4212 430.21 91.207 430.23 91.0156 430.23C89.5664 430.23 88.8418 429.467 88.8418 427.94V423.483H87.7686V422.937L88.8418 422.465L89.3203 420.865H89.9766V422.602H92.1504V423.483H89.9766V427.893C89.9766 428.344 90.0837 428.69 90.2979 428.932C90.512 429.173 90.806 429.294 91.1797 429.294ZM96.874 430.23C95.7666 430.23 94.8916 429.893 94.249 429.219C93.611 428.544 93.292 427.608 93.292 426.409C93.292 425.201 93.5882 424.242 94.1807 423.531C94.7777 422.82 95.5775 422.465 96.5801 422.465C97.5189 422.465 98.2617 422.775 98.8086 423.395C99.3555 424.01 99.6289 424.823 99.6289 425.835V426.553H94.4678C94.4906 427.432 94.7116 428.1 95.1309 428.556C95.5547 429.011 96.1494 429.239 96.915 429.239C97.7217 429.239 98.5192 429.071 99.3076 428.733V429.745C98.9066 429.918 98.526 430.041 98.166 430.114C97.8105 430.192 97.3799 430.23 96.874 430.23ZM96.5664 423.415C95.9648 423.415 95.484 423.611 95.124 424.003C94.7686 424.395 94.5589 424.937 94.4951 425.63H98.4121C98.4121 424.914 98.2526 424.368 97.9336 423.989C97.6146 423.606 97.1589 423.415 96.5664 423.415ZM104.988 422.465C105.321 422.465 105.619 422.492 105.884 422.547L105.727 423.6C105.417 423.531 105.143 423.497 104.906 423.497C104.3 423.497 103.781 423.743 103.348 424.235C102.919 424.728 102.705 425.34 102.705 426.074V430.094H101.57V422.602H102.507L102.637 423.989H102.691C102.969 423.502 103.304 423.126 103.696 422.861C104.088 422.597 104.519 422.465 104.988 422.465ZM112.118 428.05C112.118 428.747 111.858 429.285 111.339 429.663C110.819 430.041 110.09 430.23 109.151 430.23C108.158 430.23 107.383 430.073 106.827 429.759V428.706C107.187 428.888 107.572 429.032 107.982 429.137C108.397 429.242 108.796 429.294 109.179 429.294C109.771 429.294 110.227 429.201 110.546 429.014C110.865 428.822 111.024 428.533 111.024 428.146C111.024 427.854 110.897 427.605 110.642 427.4C110.391 427.191 109.899 426.945 109.165 426.662C108.468 426.402 107.971 426.177 107.675 425.985C107.383 425.789 107.164 425.568 107.019 425.322C106.877 425.076 106.807 424.782 106.807 424.44C106.807 423.83 107.055 423.349 107.552 422.998C108.049 422.643 108.73 422.465 109.596 422.465C110.402 422.465 111.191 422.629 111.961 422.957L111.558 423.88C110.806 423.57 110.124 423.415 109.514 423.415C108.976 423.415 108.57 423.499 108.297 423.668C108.023 423.837 107.887 424.069 107.887 424.365C107.887 424.566 107.937 424.737 108.037 424.878C108.142 425.019 108.308 425.154 108.536 425.281C108.764 425.409 109.201 425.593 109.849 425.835C110.737 426.159 111.337 426.484 111.646 426.812C111.961 427.141 112.118 427.553 112.118 428.05ZM124.061 430.094L122.816 426.915H118.811L117.58 430.094H116.404L120.355 420.059H121.333L125.264 430.094H124.061ZM122.454 425.869L121.292 422.772C121.142 422.381 120.987 421.9 120.827 421.33C120.727 421.768 120.583 422.248 120.396 422.772L119.221 425.869H122.454ZM129.953 430.23C129.465 430.23 129.019 430.142 128.613 429.964C128.212 429.782 127.875 429.504 127.602 429.13H127.52C127.574 429.567 127.602 429.982 127.602 430.374V433.457H126.467V422.602H127.39L127.547 423.627H127.602C127.893 423.217 128.233 422.921 128.62 422.738C129.007 422.556 129.452 422.465 129.953 422.465C130.947 422.465 131.712 422.804 132.25 423.483C132.792 424.162 133.063 425.115 133.063 426.341C133.063 427.571 132.788 428.528 132.236 429.212C131.689 429.891 130.928 430.23 129.953 430.23ZM129.789 423.429C129.023 423.429 128.47 423.641 128.128 424.064C127.786 424.488 127.611 425.163 127.602 426.088V426.341C127.602 427.394 127.777 428.148 128.128 428.604C128.479 429.055 129.042 429.28 129.816 429.28C130.464 429.28 130.969 429.018 131.334 428.494C131.703 427.97 131.888 427.248 131.888 426.327C131.888 425.393 131.703 424.677 131.334 424.181C130.969 423.679 130.454 423.429 129.789 423.429ZM138.539 430.23C138.051 430.23 137.605 430.142 137.199 429.964C136.798 429.782 136.461 429.504 136.188 429.13H136.105C136.16 429.567 136.188 429.982 136.188 430.374V433.457H135.053V422.602H135.976L136.133 423.627H136.188C136.479 423.217 136.819 422.921 137.206 422.738C137.593 422.556 138.038 422.465 138.539 422.465C139.533 422.465 140.298 422.804 140.836 423.483C141.378 424.162 141.649 425.115 141.649 426.341C141.649 427.571 141.374 428.528 140.822 429.212C140.275 429.891 139.514 430.23 138.539 430.23ZM138.375 423.429C137.609 423.429 137.056 423.641 136.714 424.064C136.372 424.488 136.197 425.163 136.188 426.088V426.341C136.188 427.394 136.363 428.148 136.714 428.604C137.065 429.055 137.628 429.28 138.402 429.28C139.049 429.28 139.555 429.018 139.92 428.494C140.289 427.97 140.474 427.248 140.474 426.327C140.474 425.393 140.289 424.677 139.92 424.181C139.555 423.679 139.04 423.429 138.375 423.429Z" fill="#132144"/>
<path d="M0 458.891H250V456.891H0V458.891Z" fill="#E7EAF3" mask="url(#path-25-inside-4_80_1561)"/>
<path d="M34.9776 483.609V487.992C34.9776 488.603 34.8614 489.134 34.629 489.586C34.3966 490.034 34.0479 490.381 33.5831 490.627C33.1183 490.869 32.5355 490.99 31.835 490.99C30.8322 490.99 30.0669 490.733 29.539 490.218C29.011 489.704 28.7471 488.976 28.7471 488.037V483.609H30.7243V487.882C30.7243 488.397 30.8206 488.771 31.0132 489.003C31.2058 489.235 31.4896 489.352 31.8648 489.352C32.1338 489.352 32.3529 489.302 32.5223 489.202C32.6916 489.099 32.8145 488.938 32.8908 488.719C32.9705 488.5 33.0104 488.218 33.0104 487.872V483.609H34.9776ZM39.5268 483.609C40.4498 483.609 41.1404 483.81 41.5986 484.212C42.0602 484.614 42.2909 485.185 42.2909 485.925C42.2909 486.257 42.2428 486.576 42.1465 486.881C42.0535 487.187 41.8991 487.459 41.6833 487.698C41.4708 487.937 41.1869 488.126 40.8316 488.266C40.4797 488.405 40.0447 488.475 39.5268 488.475H38.9739V490.891H37.0066V483.609H39.5268ZM39.4819 485.198H38.9739V486.871H39.3624C39.5317 486.871 39.6895 486.843 39.8355 486.787C39.9816 486.727 40.0979 486.632 40.1842 486.503C40.2738 486.37 40.3187 486.194 40.3187 485.975C40.3187 485.746 40.2506 485.56 40.1145 485.417C39.9783 485.271 39.7675 485.198 39.4819 485.198ZM47.1937 485.118C46.9612 485.118 46.7537 485.168 46.5711 485.268C46.3885 485.364 46.2324 485.505 46.1029 485.691C45.9734 485.877 45.8738 486.104 45.8041 486.373C45.7377 486.639 45.7045 486.941 45.7045 487.28C45.7045 487.738 45.7626 488.123 45.8788 488.435C45.995 488.747 46.171 488.983 46.4067 489.142C46.6458 489.302 46.9446 489.382 47.3032 489.382C47.6286 489.382 47.9407 489.337 48.2396 489.247C48.5417 489.157 48.8455 489.05 49.151 488.923V490.587C48.8289 490.73 48.4985 490.833 48.1599 490.896C47.8245 490.959 47.4676 490.99 47.0891 490.99C46.2988 490.99 45.6514 490.834 45.1467 490.522C44.6453 490.207 44.2751 489.77 44.036 489.212C43.8003 488.654 43.6824 488.007 43.6824 487.27C43.6824 486.719 43.7588 486.214 43.9115 485.756C44.0676 485.298 44.295 484.901 44.5938 484.565C44.8927 484.227 45.2612 483.966 45.6995 483.783C46.1411 483.598 46.6458 483.505 47.2136 483.505C47.5655 483.505 47.9357 483.546 48.3242 483.629C48.716 483.709 49.0979 483.838 49.4697 484.018L48.8671 485.567C48.6015 485.44 48.3325 485.334 48.0603 485.248C47.788 485.161 47.4991 485.118 47.1937 485.118ZM57.8887 487.24C57.8887 487.801 57.8206 488.312 57.6845 488.774C57.5517 489.232 57.3425 489.627 57.0569 489.959C56.7714 490.291 56.4045 490.547 55.9563 490.726C55.508 490.902 54.9718 490.99 54.3476 490.99C53.7366 490.99 53.207 490.902 52.7588 490.726C52.3139 490.547 51.947 490.293 51.6581 489.964C51.3692 489.632 51.1551 489.235 51.0156 488.774C50.8762 488.312 50.8064 487.798 50.8064 487.23C50.8064 486.473 50.931 485.816 51.18 485.258C51.4323 484.697 51.8208 484.263 52.3454 483.958C52.87 483.649 53.5407 483.495 54.3575 483.495C55.1876 483.495 55.8616 483.649 56.3796 483.958C56.9009 484.267 57.2827 484.702 57.5251 485.263C57.7675 485.824 57.8887 486.483 57.8887 487.24ZM52.8783 487.24C52.8783 487.678 52.9281 488.055 53.0277 488.371C53.1273 488.686 53.2851 488.928 53.5009 489.098C53.7167 489.267 53.9989 489.352 54.3476 489.352C54.7095 489.352 54.9967 489.267 55.2092 489.098C55.425 488.928 55.5794 488.686 55.6724 488.371C55.7687 488.055 55.8168 487.678 55.8168 487.24C55.8168 486.583 55.7072 486.063 55.4881 485.681C55.2689 485.299 54.8921 485.108 54.3575 485.108C54.0022 485.108 53.715 485.195 53.4959 485.367C53.2801 485.54 53.1224 485.786 53.0228 486.104C52.9265 486.423 52.8783 486.802 52.8783 487.24ZM62.8761 490.891L61.3869 485.646H61.3421C61.3554 485.782 61.3687 485.967 61.3819 486.199C61.3985 486.431 61.4135 486.682 61.4268 486.951C61.44 487.22 61.4467 487.479 61.4467 487.728V490.891H59.7035V483.609H62.3232L63.8423 488.779H63.8821L65.3713 483.609H67.996V490.891H66.1881V487.698C66.1881 487.469 66.1914 487.223 66.198 486.961C66.208 486.695 66.218 486.446 66.2279 486.214C66.2412 485.978 66.2528 485.792 66.2628 485.656H66.218L64.7487 490.891H62.8761ZM70.0648 490.891V483.609H72.0421V490.891H70.0648ZM81.0537 490.891H78.4738L75.8143 485.761H75.7694C75.786 485.917 75.801 486.104 75.8143 486.324C75.8275 486.543 75.8392 486.767 75.8491 486.996C75.8591 487.222 75.8641 487.426 75.8641 487.608V490.891H74.1209V483.609H76.6908L79.3404 488.669H79.3703C79.3604 488.51 79.3504 488.326 79.3404 488.117C79.3305 487.904 79.3205 487.69 79.3105 487.474C79.3039 487.258 79.3006 487.067 79.3006 486.901V483.609H81.0537V490.891ZM86.0511 486.627H89.1938V490.552C88.8186 490.681 88.3886 490.788 87.9038 490.871C87.419 490.95 86.911 490.99 86.3798 490.99C85.6792 490.99 85.0649 490.854 84.537 490.582C84.0091 490.31 83.5974 489.896 83.3019 489.342C83.0063 488.784 82.8586 488.08 82.8586 487.23C82.8586 486.466 83.0047 485.807 83.2969 485.253C83.5891 484.695 84.019 484.265 84.5868 483.963C85.1579 483.657 85.8568 483.505 86.6836 483.505C87.1385 483.505 87.5701 483.548 87.9785 483.634C88.3869 483.72 88.7422 483.83 89.0443 483.963L88.4218 485.507C88.1595 485.377 87.8872 485.281 87.605 485.218C87.3228 485.151 87.0189 485.118 86.6936 485.118C86.2586 485.118 85.9083 485.216 85.6427 485.412C85.3804 485.608 85.1895 485.87 85.0699 486.199C84.9504 486.524 84.8906 486.885 84.8906 487.28C84.8906 487.731 84.9537 488.113 85.0799 488.425C85.2094 488.734 85.397 488.97 85.6427 489.133C85.8917 489.292 86.1922 489.372 86.5441 489.372C86.6604 489.372 86.8015 489.363 86.9675 489.347C87.1368 489.33 87.2646 489.31 87.351 489.287V488.146H86.0511V486.627ZM96.2649 490.891H94.3275V483.609H98.6307V485.188H96.2649V486.578H98.4464V488.156H96.2649V490.891ZM104.649 490.891H100.326V483.609H104.649V485.188H102.293V486.333H104.475V487.912H102.293V489.287H104.649V490.891ZM110.892 490.891L110.533 489.526H108.167L107.799 490.891H105.637L108.013 483.579H110.637L113.043 490.891H110.892ZM110.125 487.912L109.811 486.717C109.778 486.588 109.729 486.403 109.666 486.164C109.603 485.922 109.54 485.673 109.477 485.417C109.417 485.158 109.371 484.946 109.338 484.78C109.308 484.946 109.265 485.151 109.208 485.397C109.155 485.64 109.099 485.88 109.039 486.119C108.982 486.358 108.933 486.558 108.889 486.717L108.576 487.912H110.125ZM117.547 490.891H115.58V485.218H113.802V483.609H119.32V485.218H117.547V490.891ZM127.052 483.609V487.992C127.052 488.603 126.936 489.134 126.703 489.586C126.471 490.034 126.122 490.381 125.658 490.627C125.193 490.869 124.61 490.99 123.909 490.99C122.907 490.99 122.141 490.733 121.613 490.218C121.085 489.704 120.821 488.976 120.821 488.037V483.609H122.799V487.882C122.799 488.397 122.895 488.771 123.088 489.003C123.28 489.235 123.564 489.352 123.939 489.352C124.208 489.352 124.427 489.302 124.597 489.202C124.766 489.099 124.889 488.938 124.965 488.719C125.045 488.5 125.085 488.218 125.085 487.872V483.609H127.052ZM131.467 483.609C132.127 483.609 132.677 483.691 133.115 483.853C133.554 484.013 133.882 484.252 134.101 484.57C134.324 484.889 134.435 485.286 134.435 485.761C134.435 486.056 134.385 486.325 134.286 486.568C134.186 486.81 134.043 487.027 133.857 487.22C133.675 487.409 133.456 487.575 133.2 487.718L135.322 490.891H133.09L131.546 488.241H131.048V490.891H129.081V483.609H131.467ZM131.437 485.098H131.048V486.762H131.417C131.719 486.762 131.966 486.695 132.159 486.563C132.352 486.43 132.448 486.192 132.448 485.85C132.448 485.615 132.368 485.43 132.209 485.298C132.049 485.165 131.792 485.098 131.437 485.098ZM140.807 490.891H136.484V483.609H140.807V485.188H138.451V486.333H140.633V487.912H138.451V489.287H140.807V490.891ZM147.343 488.679C147.343 489.074 147.244 489.45 147.045 489.805C146.845 490.157 146.535 490.442 146.113 490.662C145.695 490.881 145.154 490.99 144.49 490.99C144.158 490.99 143.865 490.975 143.613 490.945C143.364 490.916 143.132 490.867 142.916 490.801C142.7 490.731 142.476 490.642 142.243 490.532V488.779C142.638 488.978 143.037 489.131 143.439 489.237C143.84 489.34 144.204 489.392 144.529 489.392C144.725 489.392 144.885 489.368 145.008 489.322C145.134 489.275 145.227 489.212 145.286 489.133C145.346 489.05 145.376 488.955 145.376 488.849C145.376 488.722 145.331 488.616 145.242 488.53C145.155 488.44 145.016 488.347 144.823 488.251C144.631 488.155 144.377 488.035 144.061 487.892C143.792 487.766 143.548 487.637 143.329 487.504C143.113 487.371 142.927 487.22 142.771 487.051C142.619 486.878 142.501 486.677 142.418 486.448C142.335 486.219 142.293 485.948 142.293 485.636C142.293 485.168 142.408 484.776 142.637 484.461C142.869 484.142 143.191 483.903 143.603 483.744C144.018 483.584 144.496 483.505 145.037 483.505C145.512 483.505 145.939 483.558 146.317 483.664C146.699 483.77 147.041 483.891 147.343 484.028L146.741 485.547C146.429 485.404 146.121 485.291 145.819 485.208C145.517 485.122 145.237 485.078 144.978 485.078C144.808 485.078 144.669 485.1 144.559 485.143C144.453 485.183 144.373 485.238 144.32 485.308C144.27 485.377 144.246 485.457 144.246 485.547C144.246 485.659 144.289 485.761 144.375 485.85C144.465 485.94 144.612 486.038 144.818 486.144C145.027 486.247 145.311 486.382 145.67 486.548C146.025 486.707 146.327 486.88 146.576 487.066C146.825 487.248 147.015 487.469 147.144 487.728C147.277 487.984 147.343 488.301 147.343 488.679Z" fill="#8C98A4"/>
<path d="M0 517.812H250V515.812H0V517.812Z" fill="#E7EAF3" mask="url(#path-28-inside-5_80_1561)"/>
<path d="M61.7236 555.203H60.5615V545.209H66.1328V546.241H61.7236V549.898H65.8662V550.931H61.7236V555.203ZM74.0762 555.203L72.832 552.024H68.8262L67.5957 555.203H66.4199L70.3711 545.168H71.3486L75.2793 555.203H74.0762ZM72.4697 550.979L71.3076 547.882C71.1572 547.49 71.0023 547.009 70.8428 546.439C70.7425 546.877 70.599 547.358 70.4121 547.882L69.2363 550.979H72.4697ZM85.3281 550.192C85.3281 551.473 85.0706 552.537 84.5557 553.385C84.0407 554.232 83.3138 554.807 82.375 555.107L84.7539 557.582H83.0654L81.1172 555.326L80.7412 555.34C79.2692 555.34 78.1322 554.891 77.3301 553.993C76.5326 553.091 76.1338 551.819 76.1338 550.179C76.1338 548.552 76.5348 547.292 77.3369 546.398C78.139 545.501 79.2783 545.052 80.7549 545.052C82.1904 545.052 83.3115 545.507 84.1182 546.419C84.9248 547.33 85.3281 548.588 85.3281 550.192ZM77.3643 550.192C77.3643 551.546 77.6514 552.574 78.2256 553.275C78.8044 553.973 79.6429 554.321 80.7412 554.321C81.8486 554.321 82.6849 553.973 83.25 553.275C83.8151 552.578 84.0977 551.55 84.0977 550.192C84.0977 548.848 83.8151 547.829 83.25 547.137C82.6895 546.439 81.8577 546.091 80.7549 546.091C79.6475 546.091 78.8044 546.442 78.2256 547.144C77.6514 547.841 77.3643 548.857 77.3643 550.192ZM92.2256 553.159C92.2256 553.856 91.9658 554.394 91.4463 554.772C90.9268 555.151 90.1976 555.34 89.2588 555.34C88.2653 555.34 87.4906 555.183 86.9346 554.868V553.815C87.2946 553.998 87.6797 554.141 88.0898 554.246C88.5046 554.351 88.9033 554.403 89.2861 554.403C89.8786 554.403 90.3343 554.31 90.6533 554.123C90.9723 553.932 91.1318 553.642 91.1318 553.255C91.1318 552.963 91.0042 552.715 90.749 552.51C90.4984 552.3 90.0062 552.054 89.2725 551.771C88.5752 551.512 88.0785 551.286 87.7822 551.095C87.4906 550.899 87.2718 550.678 87.126 550.432C86.9847 550.186 86.9141 549.892 86.9141 549.55C86.9141 548.939 87.1624 548.458 87.6592 548.107C88.1559 547.752 88.8372 547.574 89.7031 547.574C90.5098 547.574 91.2982 547.738 92.0684 548.066L91.665 548.989C90.9131 548.679 90.2318 548.524 89.6211 548.524C89.0833 548.524 88.6777 548.609 88.4043 548.777C88.1309 548.946 87.9941 549.178 87.9941 549.475C87.9941 549.675 88.0443 549.846 88.1445 549.987C88.2493 550.129 88.4157 550.263 88.6436 550.391C88.8714 550.518 89.3089 550.703 89.9561 550.944C90.8447 551.268 91.444 551.594 91.7539 551.922C92.0684 552.25 92.2256 552.662 92.2256 553.159Z" fill="#132144"/>
<path d="M61.7236 604.391H60.5615V594.396H66.1328V595.429H61.7236V599.086H65.8662V600.118H61.7236V604.391ZM68.7578 604.391H67.623V593.754H68.7578V604.391ZM77.6309 600.638C77.6309 601.859 77.3232 602.814 76.708 603.502C76.0928 604.186 75.2428 604.527 74.1582 604.527C73.4883 604.527 72.8936 604.37 72.374 604.056C71.8545 603.741 71.4535 603.29 71.1709 602.702C70.8883 602.114 70.7471 601.426 70.7471 600.638C70.7471 599.416 71.0524 598.466 71.6631 597.787C72.2738 597.104 73.1214 596.762 74.2061 596.762C75.2542 596.762 76.0859 597.11 76.7012 597.808C77.321 598.505 77.6309 599.448 77.6309 600.638ZM71.9229 600.638C71.9229 601.595 72.1143 602.324 72.4971 602.825C72.8799 603.326 73.4427 603.577 74.1855 603.577C74.9284 603.577 75.4912 603.329 75.874 602.832C76.2614 602.331 76.4551 601.599 76.4551 600.638C76.4551 599.685 76.2614 598.963 75.874 598.471C75.4912 597.974 74.9238 597.726 74.1719 597.726C73.429 597.726 72.8685 597.969 72.4902 598.457C72.112 598.945 71.9229 599.672 71.9229 600.638ZM82.6211 604.527C81.5365 604.527 80.6956 604.195 80.0986 603.529C79.5062 602.859 79.21 601.914 79.21 600.692C79.21 599.439 79.5107 598.471 80.1123 597.787C80.7184 597.104 81.5798 596.762 82.6963 596.762C83.0563 596.762 83.4163 596.8 83.7764 596.878C84.1364 596.955 84.4189 597.047 84.624 597.151L84.2754 598.115C84.0247 598.015 83.7513 597.933 83.4551 597.869C83.1589 597.801 82.8968 597.767 82.6689 597.767C81.1468 597.767 80.3857 598.737 80.3857 600.679C80.3857 601.599 80.5703 602.306 80.9395 602.798C81.3132 603.29 81.8646 603.536 82.5938 603.536C83.2181 603.536 83.8584 603.402 84.5146 603.133V604.138C84.0133 604.397 83.3822 604.527 82.6211 604.527ZM90.9062 604.391L90.6807 603.324H90.626C90.2523 603.794 89.8786 604.113 89.5049 604.281C89.1357 604.445 88.6732 604.527 88.1172 604.527C87.3743 604.527 86.791 604.336 86.3672 603.953C85.9479 603.57 85.7383 603.026 85.7383 602.319C85.7383 600.806 86.9482 600.013 89.3682 599.94L90.6396 599.899V599.435C90.6396 598.847 90.512 598.414 90.2568 598.136C90.0062 597.853 89.6029 597.712 89.0469 597.712C88.4225 597.712 87.7161 597.903 86.9277 598.286L86.5791 597.418C86.9482 597.217 87.3516 597.06 87.7891 596.946C88.2311 596.832 88.6732 596.775 89.1152 596.775C90.0085 596.775 90.6693 596.974 91.0977 597.37C91.5306 597.767 91.7471 598.402 91.7471 599.277V604.391H90.9062ZM88.3428 603.591C89.0492 603.591 89.6029 603.397 90.0039 603.01C90.4095 602.622 90.6123 602.08 90.6123 601.383V600.706L89.4775 600.754C88.5752 600.786 87.9235 600.927 87.5225 601.178C87.126 601.424 86.9277 601.809 86.9277 602.333C86.9277 602.743 87.0508 603.055 87.2969 603.27C87.5475 603.484 87.8962 603.591 88.3428 603.591ZM97.5098 596.762C97.8424 596.762 98.141 596.789 98.4053 596.844L98.248 597.896C97.9382 597.828 97.6647 597.794 97.4277 597.794C96.8216 597.794 96.3021 598.04 95.8691 598.532C95.4408 599.024 95.2266 599.637 95.2266 600.371V604.391H94.0918V596.898H95.0283L95.1582 598.286H95.2129C95.4909 597.799 95.8258 597.423 96.2178 597.158C96.6097 596.894 97.0404 596.762 97.5098 596.762ZM104.906 603.386H104.845C104.321 604.147 103.537 604.527 102.493 604.527C101.513 604.527 100.75 604.192 100.203 603.522C99.6608 602.853 99.3896 601.9 99.3896 600.665C99.3896 599.43 99.6631 598.471 100.21 597.787C100.757 597.104 101.518 596.762 102.493 596.762C103.509 596.762 104.289 597.131 104.831 597.869H104.92L104.872 597.329L104.845 596.803V593.754H105.979V604.391H105.057L104.906 603.386ZM102.637 603.577C103.411 603.577 103.972 603.368 104.318 602.948C104.669 602.524 104.845 601.843 104.845 600.904V600.665C104.845 599.603 104.667 598.847 104.312 598.396C103.961 597.94 103.398 597.712 102.623 597.712C101.958 597.712 101.447 597.972 101.092 598.491C100.741 599.006 100.565 599.735 100.565 600.679C100.565 601.636 100.741 602.358 101.092 602.846C101.443 603.333 101.958 603.577 102.637 603.577ZM118.537 597.309C118.537 598.32 118.191 599.1 117.498 599.646C116.81 600.189 115.823 600.46 114.538 600.46H113.362V604.391H112.2V594.396H114.791C117.288 594.396 118.537 595.367 118.537 597.309ZM113.362 599.462H114.408C115.438 599.462 116.183 599.296 116.644 598.963C117.104 598.63 117.334 598.097 117.334 597.363C117.334 596.702 117.118 596.21 116.685 595.887C116.252 595.563 115.577 595.401 114.661 595.401H113.362V599.462ZM126.932 600.638C126.932 601.859 126.624 602.814 126.009 603.502C125.394 604.186 124.544 604.527 123.459 604.527C122.789 604.527 122.194 604.37 121.675 604.056C121.155 603.741 120.754 603.29 120.472 602.702C120.189 602.114 120.048 601.426 120.048 600.638C120.048 599.416 120.353 598.466 120.964 597.787C121.575 597.104 122.422 596.762 123.507 596.762C124.555 596.762 125.387 597.11 126.002 597.808C126.622 598.505 126.932 599.448 126.932 600.638ZM121.224 600.638C121.224 601.595 121.415 602.324 121.798 602.825C122.181 603.326 122.743 603.577 123.486 603.577C124.229 603.577 124.792 603.329 125.175 602.832C125.562 602.331 125.756 601.599 125.756 600.638C125.756 599.685 125.562 598.963 125.175 598.471C124.792 597.974 124.225 597.726 123.473 597.726C122.73 597.726 122.169 597.969 121.791 598.457C121.413 598.945 121.224 599.672 121.224 600.638ZM130.062 604.391H128.928V593.754H130.062V604.391ZM133.604 604.391H132.469V596.898H133.604V604.391ZM132.373 594.868C132.373 594.608 132.437 594.419 132.564 594.301C132.692 594.178 132.852 594.116 133.043 594.116C133.225 594.116 133.382 594.178 133.515 594.301C133.647 594.424 133.713 594.613 133.713 594.868C133.713 595.123 133.647 595.315 133.515 595.442C133.382 595.565 133.225 595.627 133.043 595.627C132.852 595.627 132.692 595.565 132.564 595.442C132.437 595.315 132.373 595.123 132.373 594.868ZM139.004 604.527C137.919 604.527 137.078 604.195 136.481 603.529C135.889 602.859 135.593 601.914 135.593 600.692C135.593 599.439 135.894 598.471 136.495 597.787C137.101 597.104 137.963 596.762 139.079 596.762C139.439 596.762 139.799 596.8 140.159 596.878C140.519 596.955 140.802 597.047 141.007 597.151L140.658 598.115C140.408 598.015 140.134 597.933 139.838 597.869C139.542 597.801 139.28 597.767 139.052 597.767C137.53 597.767 136.769 598.737 136.769 600.679C136.769 601.599 136.953 602.306 137.322 602.798C137.696 603.29 138.247 603.536 138.977 603.536C139.601 603.536 140.241 603.402 140.897 603.133V604.138C140.396 604.397 139.765 604.527 139.004 604.527ZM143.816 604.391H142.682V596.898H143.816V604.391ZM142.586 594.868C142.586 594.608 142.65 594.419 142.777 594.301C142.905 594.178 143.064 594.116 143.256 594.116C143.438 594.116 143.595 594.178 143.728 594.301C143.86 594.424 143.926 594.613 143.926 594.868C143.926 595.123 143.86 595.315 143.728 595.442C143.595 595.565 143.438 595.627 143.256 595.627C143.064 595.627 142.905 595.565 142.777 595.442C142.65 595.315 142.586 595.123 142.586 594.868ZM149.388 604.527C148.28 604.527 147.405 604.19 146.763 603.516C146.125 602.841 145.806 601.905 145.806 600.706C145.806 599.498 146.102 598.539 146.694 597.828C147.291 597.117 148.091 596.762 149.094 596.762C150.033 596.762 150.775 597.072 151.322 597.691C151.869 598.307 152.143 599.12 152.143 600.132V600.85H146.981C147.004 601.729 147.225 602.397 147.645 602.853C148.068 603.308 148.663 603.536 149.429 603.536C150.235 603.536 151.033 603.368 151.821 603.03V604.042C151.42 604.215 151.04 604.338 150.68 604.411C150.324 604.489 149.894 604.527 149.388 604.527ZM149.08 597.712C148.479 597.712 147.998 597.908 147.638 598.3C147.282 598.692 147.073 599.234 147.009 599.927H150.926C150.926 599.211 150.766 598.664 150.447 598.286C150.128 597.903 149.673 597.712 149.08 597.712ZM158.917 602.347C158.917 603.044 158.657 603.582 158.138 603.96C157.618 604.338 156.889 604.527 155.95 604.527C154.957 604.527 154.182 604.37 153.626 604.056V603.003C153.986 603.185 154.371 603.329 154.781 603.434C155.196 603.538 155.595 603.591 155.978 603.591C156.57 603.591 157.026 603.497 157.345 603.311C157.664 603.119 157.823 602.83 157.823 602.442C157.823 602.151 157.696 601.902 157.44 601.697C157.19 601.488 156.698 601.242 155.964 600.959C155.267 600.699 154.77 600.474 154.474 600.282C154.182 600.086 153.963 599.865 153.817 599.619C153.676 599.373 153.605 599.079 153.605 598.737C153.605 598.127 153.854 597.646 154.351 597.295C154.847 596.939 155.529 596.762 156.395 596.762C157.201 596.762 157.99 596.926 158.76 597.254L158.356 598.177C157.604 597.867 156.923 597.712 156.312 597.712C155.775 597.712 155.369 597.796 155.096 597.965C154.822 598.133 154.686 598.366 154.686 598.662C154.686 598.863 154.736 599.034 154.836 599.175C154.941 599.316 155.107 599.451 155.335 599.578C155.563 599.706 156 599.89 156.647 600.132C157.536 600.455 158.135 600.781 158.445 601.109C158.76 601.438 158.917 601.85 158.917 602.347Z" fill="#132144"/>
</g>
<path d="M259 0V700H261V0H259Z" fill="#E7EAF3" mask="url(#path-1-inside-1_80_1561)"/>
<defs>
<clipPath id="clip0_80_1561">
<rect width="103.96" height="35.3906" fill="white" transform="translate(28.02 12.2969)"/>
</clipPath>
<clipPath id="clip1_80_1561">
<rect width="259" height="572" fill="white" transform="translate(0 60)"/>
</clipPath>
</defs>
</svg>
