<?xml version="1.0" encoding="UTF-8"?>
<svg width="88px" height="103px" viewBox="0 0 88 103" version="1.1" xmlns="http://www.w3.org/2000/svg" xmlns:xlink="http://www.w3.org/1999/xlink">
    <title>Path@2x</title>
    <g id="Page-1" stroke="none" stroke-width="1" fill="none" fill-rule="evenodd">
        <g id="icons-01" transform="translate(-144.000000, -150.000000)" fill="#00D179" fill-rule="nonzero">
            <path d="M207.151,171.822 C207.324,171.782 215.501,171.742 222.932,171.729 L231.602,150.501 L197.016,150.501 C194.526,150.501 192.568,151.194 191.13,152.592 C189.692,153.99 188.666,155.469 188.04,157.027 C188.04,157.027 167.93,210.265 159.381,227.169 C156.054,233.749 144,252.338 144,252.338 C149.127,253.35 154.174,253.15 159.142,251.752 C161.246,251.219 163.443,250.34 165.734,249.128 C168.025,247.929 170.288,246.345 172.552,244.36 C174.803,242.376 176.973,239.912 179.078,236.955 C181.169,233.999 183.113,230.469 184.898,226.354 L189.333,215.394 L205.114,215.394 L213.477,194.899 L197.482,194.899 L199.227,190.691 L207.151,171.822 Z" id="Path"></path>
        </g>
    </g>
</svg>